<?xml version="1.0" standalone="no"?>
<!DOCTYPE svg PUBLIC "-//W3C//DTD SVG 20010904//EN"
 "http://www.w3.org/TR/2001/REC-SVG-20010904/DTD/svg10.dtd">
<svg version="1.0" xmlns="http://www.w3.org/2000/svg"
 width="300.000000pt" height="300.000000pt" viewBox="0 0 300.000000 300.000000"
 preserveAspectRatio="xMidYMid meet">
<metadata>
Created by potrace 1.10, written by Peter Selinger 2001-2011
</metadata>
<g transform="translate(0.000000,300.000000) scale(0.100000,-0.100000)"
fill="#000000" stroke="none">
<path d="M1375 2983 c-166 -14 -379 -73 -528 -148 -417 -208 -703 -580 -803
-1045 -26 -120 -27 -448 -1 -570 63 -300 198 -552 412 -765 224 -225 490 -363
800 -417 166 -28 419 -22 575 15 192 46 332 106 495 215 628 416 842 1233 501
1910 -132 262 -386 516 -648 648 -248 125 -530 180 -803 157z m366 -79 c596
-101 1065 -573 1164 -1173 26 -151 17 -417 -19 -556 -139 -551 -568 -961
-1123 -1072 -133 -26 -404 -24 -540 5 -284 61 -521 190 -723 392 -202 202
-331 439 -392 723 -31 145 -31 419 0 559 62 280 180 503 372 702 223 231 483
370 790 421 110 19 358 18 471 -1z"/>
<path d="M1353 2890 c-541 -62 -1001 -434 -1173 -948 -54 -162 -65 -240 -65
-442 0 -198 12 -276 62 -429 135 -415 470 -753 883 -891 180 -60 443 -86 621
-61 602 85 1064 518 1191 1114 28 136 30 378 4 517 -56 290 -181 527 -390 736
-207 207 -439 331 -720 385 -115 23 -308 31 -413 19z m463 -44 c413 -103 737
-362 924 -735 47 -95 101 -251 121 -356 21 -106 19 -418 -4 -522 -121 -563
-547 -981 -1112 -1089 -121 -24 -357 -24 -485 0 -467 84 -868 413 -1039 851
-189 481 -101 1007 235 1405 202 239 511 414 823 465 138 23 410 13 537 -19z"/>
<path d="M1451 2753 l-2 -93 49 0 c35 0 54 5 65 18 24 27 22 69 -4 77 -20 7
-20 8 -3 26 28 31 7 53 -53 59 l-51 5 -1 -92z m79 62 c10 -12 10 -18 0 -30
-20 -24 -50 -19 -50 8 0 39 26 50 50 22z m15 -100 c0 -27 -4 -30 -32 -33 -32
-3 -33 -2 -33 33 0 35 1 36 33 33 28 -3 32 -6 32 -33z"/>
<path d="M1220 2812 c-60 -29 -50 -72 21 -94 50 -15 66 -32 48 -54 -9 -12 -24
-15 -52 -11 -26 4 -37 2 -34 -6 2 -7 20 -13 40 -15 28 -2 42 3 62 22 14 14 25
32 25 40 0 17 -37 46 -60 46 -9 0 -26 7 -38 16 -18 13 -21 19 -11 30 6 8 24
14 40 14 19 0 29 5 29 15 0 20 -27 19 -70 -3z"/>
<path d="M1639 2801 c-90 -90 42 -217 140 -135 67 56 22 164 -69 164 -33 0
-48 -6 -71 -29z m121 -13 c44 -47 13 -128 -49 -128 -34 0 -71 39 -71 75 0 63
78 98 120 53z"/>
<path d="M1873 2780 c-34 -14 -30 -57 8 -96 20 -20 29 -39 26 -48 -9 -22 -53
-20 -77 4 -20 20 -20 20 -20 -1 0 -27 59 -53 94 -39 14 5 30 18 36 29 9 17 5
27 -25 59 -19 22 -35 47 -35 56 0 21 38 21 60 1 16 -14 18 -14 24 0 4 12 -4
20 -29 31 -19 7 -36 14 -37 13 -2 0 -13 -4 -25 -9z"/>
<path d="M1040 2762 c-12 -6 -15 -29 -17 -104 -1 -54 2 -98 5 -98 18 1 27 18
27 49 0 29 5 36 29 44 26 9 32 7 53 -18 18 -20 29 -25 41 -19 14 8 6 20 -53
81 -48 49 -75 69 -85 65z m48 -84 c-26 -16 -38 -8 -38 24 l0 31 25 -23 c19
-18 22 -26 13 -32z"/>
<path d="M2000 2735 c-10 -12 -9 -15 6 -15 46 -1 47 -14 9 -90 -29 -57 -34
-75 -23 -81 19 -13 28 -11 28 5 0 21 51 136 61 136 4 0 14 -7 22 -15 12 -12
17 -12 26 -2 8 10 -5 20 -54 45 -54 27 -65 29 -75 17z"/>
<path d="M883 2694 c-44 -25 -60 -40 -56 -50 3 -9 9 -12 12 -7 3 4 14 14 23
21 16 12 21 6 54 -61 30 -59 41 -73 56 -69 18 4 26 22 9 22 -9 0 -71 111 -71
128 0 5 9 12 20 15 11 3 20 12 20 21 0 9 -1 16 -2 15 -2 0 -31 -16 -65 -35z"/>
<path d="M769 2627 c-14 -11 -10 -21 36 -89 48 -73 53 -77 71 -63 10 8 14 15
8 15 -11 0 -87 110 -95 137 -3 9 -8 9 -20 0z"/>
<path d="M2119 2611 c-58 -58 -28 -136 64 -165 25 -8 83 18 96 42 37 69 -12
152 -89 152 -33 0 -48 -6 -71 -29z m119 -7 c50 -35 13 -134 -50 -134 -63 0
-91 78 -43 125 28 29 61 32 93 9z"/>
<path d="M1440 2623 c-368 -26 -684 -212 -882 -517 -110 -170 -166 -348 -175
-556 -19 -444 220 -849 619 -1051 355 -179 793 -152 1122 70 404 273 587 760
461 1229 -102 381 -419 694 -802 791 -105 27 -249 41 -343 34z m331 -46 c477
-124 811 -529 836 -1014 29 -562 -358 -1050 -917 -1153 -83 -16 -286 -16 -370
-1 -470 86 -826 441 -911 911 -15 83 -14 286 1 370 84 462 446 824 905 905
123 22 335 13 456 -18z"/>
<path d="M1300 2566 c-213 -45 -389 -137 -544 -286 -438 -421 -446 -1112 -17
-1541 367 -367 925 -421 1370 -132 31 20 101 82 157 137 146 147 230 292 286
496 20 75 23 107 22 265 0 152 -4 192 -22 257 -111 404 -390 682 -790 790 -99
26 -363 34 -462 14z m417 -70 c110 -24 231 -74 275 -114 46 -41 80 -97 101
-167 28 -89 27 -99 -13 -105 -39 -6 -53 -37 -26 -59 24 -20 56 -4 56 28 0 15
2 30 5 33 10 10 100 -14 162 -43 81 -39 134 -99 172 -198 51 -133 66 -221 65
-376 0 -166 -23 -272 -85 -403 -32 -66 -49 -89 -87 -117 -53 -39 -140 -74
-192 -77 -31 -3 -35 0 -38 24 -4 37 -25 52 -51 38 -35 -18 -18 -75 21 -69 33
4 35 -1 27 -48 -13 -69 -61 -164 -104 -208 -45 -45 -108 -74 -230 -110 -214
-62 -482 -43 -677 47 -104 47 -151 108 -193 243 l-21 70 -47 12 c-162 40 -241
115 -298 281 -83 240 -58 583 55 777 41 69 146 134 249 154 47 8 52 6 48 -27
-5 -37 50 -57 68 -25 14 25 -5 53 -35 53 -13 0 -27 7 -30 15 -10 25 36 151 75
208 30 43 51 59 117 93 72 36 205 75 299 88 60 8 262 -2 332 -18z m-818 -205
c-11 -23 -27 -62 -33 -88 l-12 -47 -76 -26 c-42 -14 -83 -32 -92 -39 -28 -23
-17 4 13 33 16 15 50 33 76 40 46 11 49 14 62 61 13 43 70 122 80 111 2 -2 -6
-22 -18 -45z m1255 -34 c8 -23 16 -49 19 -57 2 -8 30 -24 62 -35 39 -14 66
-32 83 -53 l25 -33 -49 25 c-27 13 -70 30 -96 36 -44 11 -47 14 -58 57 -6 25
-22 68 -36 95 l-26 51 30 -22 c17 -12 37 -40 46 -64z m102 -74 c-10 -10 -58
20 -66 42 -16 41 -12 41 30 0 22 -21 38 -40 36 -42z m-1445 33 c-6 -14 -15
-26 -20 -26 -5 0 -18 -3 -28 -7 -11 -4 -6 7 16 30 39 41 46 42 32 3z m-175
-161 c-32 -29 -33 -23 -4 18 13 17 24 25 26 18 2 -6 -8 -23 -22 -36z m1749 3
l15 -32 -25 24 c-14 13 -25 30 -25 37 0 21 17 7 35 -29z m-1583 -1192 c52 -16
56 -19 62 -54 3 -20 17 -61 31 -90 22 -47 22 -51 5 -42 -28 15 -47 47 -61 100
-11 44 -15 48 -48 54 -44 7 -96 38 -111 66 l-11 21 38 -20 c21 -10 64 -26 95
-35z m1500 13 c-17 -16 -52 -34 -77 -40 -43 -11 -46 -14 -57 -57 -11 -44 -60
-112 -80 -112 -6 0 -5 7 2 15 7 9 25 50 40 93 27 76 27 76 73 88 26 7 64 21
84 32 50 26 56 18 15 -19z m-1507 -69 c12 0 31 -47 22 -56 -2 -2 -19 13 -38
33 -22 23 -27 34 -16 30 10 -4 25 -7 32 -7z m1455 7 c0 -2 -16 -18 -35 -37
l-35 -34 11 31 c9 28 21 37 52 42 4 0 7 0 7 -2z"/>
<path d="M1452 2466 c-21 -19 -46 -50 -56 -69 l-19 -33 -51 13 c-61 16 -119
10 -165 -18 l-33 -20 45 -29 c61 -39 87 -90 87 -173 l0 -63 -36 -13 c-19 -7
-38 -10 -41 -7 -4 3 -11 -4 -17 -16 -6 -11 -20 -26 -31 -32 -11 -6 -24 -17
-28 -24 -6 -9 -18 -11 -34 -7 -20 5 -24 3 -20 -9 7 -17 -14 -66 -28 -66 -6 0
-16 -9 -23 -20 -7 -12 -18 -17 -27 -13 -13 4 -15 0 -9 -21 4 -17 2 -26 -6 -26
-7 0 -10 -7 -6 -16 4 -11 -1 -18 -14 -21 -11 -3 -17 -10 -14 -15 10 -16 -17
-28 -65 -28 -62 0 -127 34 -164 86 -17 24 -34 41 -40 37 -32 -20 -47 -125 -27
-193 9 -31 8 -37 -12 -50 -47 -31 -98 -83 -104 -106 -8 -31 24 -75 81 -111 37
-22 44 -32 39 -48 -3 -11 -8 -45 -11 -76 -4 -44 -1 -67 17 -105 20 -44 23 -47
33 -30 29 48 82 97 116 107 20 6 61 9 91 7 46 -2 55 -6 59 -23 2 -11 8 -23 13
-26 7 -4 6 -14 -1 -28 -11 -19 -9 -21 14 -21 18 0 25 -5 25 -20 0 -11 7 -20
15 -20 8 0 15 -7 15 -15 0 -8 6 -15 14 -15 9 0 12 -8 8 -26 -4 -23 -2 -24 22
-18 20 5 26 2 26 -10 0 -9 6 -16 14 -16 8 0 16 -7 20 -15 3 -8 12 -12 21 -9
11 5 15 -1 15 -25 0 -29 2 -31 22 -20 17 9 24 9 33 -5 7 -8 15 -13 19 -9 25
26 36 -105 12 -160 -12 -30 -59 -77 -102 -104 -17 -10 -14 -13 30 -33 38 -18
61 -21 105 -17 31 3 65 8 76 11 16 5 26 -2 48 -39 36 -57 80 -89 111 -81 23 6
75 57 106 104 14 20 18 21 55 11 52 -15 136 -7 171 16 l28 18 -24 16 c-50 31
-88 78 -100 120 -13 48 -4 134 14 128 6 -2 16 3 22 11 9 12 15 12 34 2 21 -11
22 -11 16 14 -6 23 -3 26 19 26 16 0 25 6 25 16 0 10 7 14 23 12 16 -2 21 1
19 15 -2 10 3 17 13 17 8 0 15 9 15 21 0 12 4 17 11 14 6 -4 13 2 16 14 3 13
13 21 25 21 15 0 19 5 15 20 -3 11 -1 20 4 20 5 0 9 7 9 15 0 9 7 18 16 22 8
3 13 12 10 20 -4 9 1 17 14 20 29 8 25 21 -5 15 -16 -3 -25 -11 -25 -23 0 -11
-3 -19 -7 -19 -12 0 -32 -50 -27 -65 4 -10 -1 -12 -16 -8 -16 4 -23 0 -27 -16
-3 -11 -12 -21 -20 -21 -9 0 -13 -6 -10 -14 3 -8 -2 -16 -14 -19 -11 -3 -17
-11 -14 -19 4 -10 0 -14 -12 -14 -10 1 -19 -3 -20 -9 -1 -5 -12 -12 -25 -15
-14 -4 -24 -15 -26 -28 -3 -18 -7 -20 -21 -12 -14 7 -24 4 -39 -11 -15 -14
-29 -18 -47 -13 -16 4 -27 2 -30 -7 -3 -8 -19 -14 -38 -13 -17 0 -41 -5 -52
-11 -14 -9 -37 -10 -70 -5 -31 5 -58 4 -70 -3 -13 -7 -20 -7 -23 2 -2 6 -18
11 -36 11 -18 0 -37 5 -44 12 -8 8 -15 8 -25 -1 -12 -9 -16 -8 -21 5 -4 10
-13 14 -26 11 -13 -3 -20 0 -20 10 0 9 -6 13 -14 10 -8 -3 -17 1 -20 10 -4 10
-14 13 -31 9 -20 -5 -25 -3 -25 14 0 13 -7 20 -20 20 -11 0 -20 7 -20 15 0 8
-6 15 -14 15 -8 0 -17 7 -20 16 -4 10 -13 13 -26 9 -16 -5 -19 -3 -14 10 5 11
-4 26 -25 45 -17 16 -31 36 -31 44 0 9 -7 16 -16 16 -8 0 -12 5 -9 11 4 5 0
18 -8 27 -9 9 -16 19 -16 22 0 14 -22 60 -28 60 -5 0 -9 17 -9 39 -1 21 -8 53
-17 70 -8 17 -12 33 -8 36 5 2 7 35 6 72 -1 37 2 73 6 78 4 6 10 37 14 70 3
33 10 62 14 65 15 10 61 101 56 111 -4 5 -1 9 6 9 18 0 90 83 84 98 -3 7 5 12
20 12 14 0 25 4 25 9 0 6 14 18 30 28 17 9 30 24 30 31 0 8 6 12 15 8 14 -5
74 20 86 38 4 5 13 6 20 4 8 -3 23 -1 34 5 11 6 36 12 55 14 19 2 40 9 47 14
7 6 18 7 25 3 19 -12 107 -13 114 -2 4 6 10 5 15 -3 8 -14 32 -19 97 -21 17
-1 32 -5 32 -9 0 -12 81 -48 96 -42 8 3 14 2 13 -3 -4 -21 3 -30 31 -42 17 -8
30 -20 30 -28 0 -19 1 -19 -71 29 -169 113 -382 125 -578 32 -103 -49 -214
-161 -264 -265 -42 -90 -57 -156 -57 -255 0 -102 15 -166 62 -264 165 -346
636 -431 916 -166 234 220 253 566 46 811 -45 53 -51 64 -34 64 11 0 20 -4 20
-8 0 -14 36 -52 49 -52 6 0 11 -9 11 -20 0 -12 7 -20 18 -20 12 0 17 -9 18
-32 1 -18 6 -34 13 -36 6 -2 11 -10 11 -17 0 -7 7 -16 16 -19 10 -4 13 -13 9
-26 -3 -11 -3 -20 2 -20 4 0 9 -15 10 -32 2 -18 7 -34 12 -36 5 -2 7 -12 4
-23 -11 -39 7 -44 149 -39 l133 5 -134 5 c-95 3 -136 9 -139 18 -3 9 23 13
105 14 l108 2 -97 3 c-59 2 -100 8 -106 16 -8 9 14 11 99 9 72 -2 109 0 109 7
0 7 -39 11 -109 11 -63 0 -112 4 -116 10 -4 6 37 10 114 10 161 0 160 18 -1
22 -81 2 -123 7 -125 15 -3 8 8 10 34 6 62 -8 122 14 172 63 24 24 46 42 48
40 22 -21 20 -130 -2 -187 -4 -12 8 -25 45 -49 27 -18 59 -45 70 -60 l20 -29
-31 -36 c-18 -20 -44 -42 -58 -50 -54 -29 -53 -27 -37 -89 12 -45 13 -69 5
-107 -6 -27 -14 -49 -17 -49 -4 0 -17 15 -29 34 -30 46 -95 76 -167 76 -42 0
-57 3 -54 13 3 8 42 14 129 17 l124 6 -122 2 c-109 2 -122 4 -120 20 1 15 13
17 111 16 l111 -1 -105 6 c-95 5 -105 8 -107 26 -2 11 0 14 3 8 4 -9 34 -13
99 -13 127 0 134 18 9 22 -54 2 -99 8 -101 13 -2 6 41 9 118 7 77 -2 126 1
132 7 8 8 -25 11 -110 11 -71 0 -124 4 -128 10 -4 6 48 11 147 12 l153 2 -154
6 c-133 4 -152 7 -137 19 13 11 47 13 161 9 80 -3 145 -1 145 3 0 5 -70 9
-155 9 -97 0 -155 4 -155 10 0 6 56 10 147 10 93 0 144 3 137 10 -5 5 -77 9
-159 10 -180 1 -173 2 -159 -8 20 -13 26 -59 8 -66 -13 -5 -14 -9 -5 -20 9
-10 8 -21 -1 -42 -6 -16 -12 -36 -13 -45 -1 -9 -5 -21 -9 -27 -3 -6 -2 -14 4
-17 7 -4 3 -14 -10 -25 -37 -32 -21 -44 56 -41 86 2 126 -17 171 -83 l32 -47
20 32 c28 46 34 105 18 166 -13 50 -13 52 8 61 30 14 93 70 106 94 15 27 -21
80 -80 119 l-49 31 15 46 c9 30 12 64 8 92 -7 46 -30 100 -43 100 -4 -1 -19
-19 -35 -41 -33 -48 -78 -76 -132 -85 -55 -8 -111 7 -107 29 2 10 -4 17 -11
17 -17 0 -30 37 -16 46 18 10 9 24 -16 24 -17 0 -25 5 -25 18 0 9 -11 26 -25
36 -14 10 -25 28 -25 39 0 14 -5 18 -20 14 -11 -3 -20 -1 -20 4 0 5 -8 13 -17
16 -24 9 -53 41 -53 58 0 11 -7 14 -25 9 -15 -4 -25 -2 -25 5 0 6 -5 11 -11
11 -39 0 -50 89 -20 155 17 38 72 96 103 108 22 9 -19 35 -76 47 -40 9 -62 8
-103 -3 l-52 -14 -31 48 c-26 41 -82 89 -104 89 -3 0 -23 -16 -44 -34z m138
-76 c23 -36 37 -49 48 -45 47 18 106 24 143 16 22 -5 43 -11 45 -14 2 -2 -15
-24 -40 -48 -45 -45 -66 -95 -66 -156 0 -30 -2 -32 -32 -28 -91 11 -118 12
-123 5 -7 -11 -97 -2 -109 11 -6 5 39 9 117 9 78 0 127 4 127 10 0 6 -73 10
-200 10 -127 0 -200 -4 -200 -10 0 -6 28 -10 65 -10 37 0 65 -4 65 -10 0 -6
-30 -11 -67 -11 -38 -1 -60 -3 -50 -6 18 -5 24 -23 8 -23 -32 0 -41 14 -41 61
0 66 -21 113 -71 159 l-41 37 48 12 c40 9 60 9 108 -4 64 -17 62 -18 91 36 8
14 30 40 50 58 l36 31 29 -20 c15 -11 42 -43 60 -70z m70 -336 c126 -35 270
-146 334 -256 52 -90 99 -268 71 -268 -7 0 -15 9 -18 20 -7 28 -27 25 -27 -5
0 -16 -6 -25 -15 -25 -11 0 -15 12 -15 49 0 28 -4 53 -10 56 -6 4 -10 -12 -10
-40 l0 -46 -62 7 c-75 8 -78 9 -78 37 0 12 -5 29 -10 37 -7 12 -10 8 -10 -15
0 -16 -5 -37 -10 -45 -9 -13 -11 -13 -21 0 -8 11 -12 12 -16 3 -8 -21 -20 -15
-27 12 -3 13 -15 29 -26 35 -13 7 -20 21 -21 43 0 18 -4 41 -9 52 -7 16 -9 13
-15 -22 -8 -43 -8 -43 -51 -43 -36 0 -44 3 -44 19 0 10 -7 24 -16 32 -8 7 -13
21 -11 31 3 10 2 18 -2 18 -10 0 -31 70 -31 104 0 24 4 26 43 28 l42 1 -40 4
c-43 5 -65 -13 -65 -52 0 -11 -9 -37 -20 -58 -11 -20 -20 -45 -20 -56 0 -10
-7 -21 -15 -25 -8 -3 -15 -12 -15 -21 0 -17 -35 -21 -45 -5 -4 6 -22 -5 -43
-25 l-37 -35 -3 38 c-5 55 -19 60 -27 10 -11 -72 -13 -76 -40 -70 -16 3 -26 0
-27 -9 -1 -8 -4 11 -7 41 l-6 55 -53 14 c-52 14 -80 9 -52 -9 13 -8 12 -10 -2
-10 -10 0 -18 7 -18 15 0 18 -1 18 -37 3 -15 -6 -31 -11 -35 -10 -5 1 -8 -2
-8 -8 0 -10 35 -15 74 -11 10 0 25 -4 33 -11 12 -10 18 -9 29 7 8 10 14 13 14
6 0 -8 7 -10 20 -6 17 6 20 2 20 -29 0 -28 -4 -36 -18 -36 -9 0 -22 -8 -29
-19 -16 -25 -63 -25 -63 0 0 11 -4 19 -10 19 -5 0 -10 -8 -10 -18 0 -9 -9 -23
-20 -30 -23 -14 -36 -12 -32 6 2 6 -4 12 -13 12 -8 0 -15 -4 -15 -10 0 -5 -7
-10 -16 -10 -36 0 13 182 76 279 139 214 396 313 640 245z m-916 -304 c20 -12
61 -24 93 -27 64 -7 77 -17 60 -45 -10 -16 -26 -18 -120 -18 -70 0 -106 -4
-102 -10 3 -6 48 -10 100 -10 124 0 135 -18 13 -23 l-93 -3 102 0 c91 1 101
-1 87 -14 -11 -11 -48 -17 -142 -21 l-127 -6 132 1 c118 1 133 -1 137 -16 2
-10 0 -21 -5 -24 -6 -4 -6 -11 0 -18 8 -9 6 -17 -7 -29 -14 -13 -46 -17 -157
-20 l-140 -3 158 -2 c102 -1 156 -6 152 -12 -4 -6 -60 -10 -136 -10 -84 0
-128 -4 -124 -10 4 -6 58 -10 130 -10 72 0 126 -4 130 -10 4 -6 -30 -10 -94
-10 -61 0 -101 -4 -101 -10 0 -6 38 -10 93 -10 140 0 147 -19 7 -22 l-115 -2
95 -3 c108 -3 140 -9 140 -24 0 -7 -42 -9 -120 -7 -66 2 -120 0 -120 -4 0 -5
50 -8 110 -8 61 0 110 -4 110 -9 0 -5 8 -12 18 -14 9 -3 -12 -5 -46 -6 -78 -1
-122 -21 -167 -74 l-34 -40 -11 27 c-14 37 -12 103 4 148 l14 38 -55 37 c-30
21 -62 50 -71 65 -16 27 -15 28 13 59 17 17 49 42 72 55 l42 25 -15 41 c-17
49 -18 103 -3 147 l11 32 24 -34 c13 -19 39 -45 58 -57z m774 2 c2 -7 -7 -12
-23 -12 -24 0 -26 2 -15 15 14 17 31 16 38 -3z m12 -31 c0 -5 -16 -9 -35 -8
-19 1 -35 5 -35 9 0 4 16 8 35 8 19 0 35 -4 35 -9z m0 -36 c0 -3 -17 -5 -37
-5 -35 1 -37 2 -19 15 13 10 24 11 37 4 11 -5 19 -12 19 -14z m0 -30 c0 -11
-5 -12 -26 -5 -16 7 -23 7 -19 0 4 -6 -7 -10 -24 -10 -21 0 -31 5 -31 15 0 11
12 15 50 15 37 0 50 -4 50 -15z m-102 -38 c2 -10 -3 -17 -12 -17 -10 0 -16 9
-16 21 0 24 23 21 28 -4z m102 -2 c0 -11 -12 -15 -45 -15 -33 0 -45 4 -45 15
0 11 12 15 45 15 33 0 45 -4 45 -15z m20 -34 c0 -6 -8 -10 -17 -11 -55 -3 -76
-1 -86 9 -8 8 5 11 46 11 31 0 57 -4 57 -9z m-210 -15 c0 -19 -25 -27 -39 -13
-18 18 -13 27 14 27 15 0 25 -6 25 -14z m93 -30 c15 -28 17 -40 8 -49 -8 -8
-11 -5 -11 12 0 13 -10 37 -22 53 -13 19 -16 29 -8 26 8 -2 22 -21 33 -42z
m-203 16 c0 -10 -6 -27 -14 -38 -12 -15 -17 -17 -27 -6 -7 6 -23 12 -36 12
-13 0 -23 5 -23 10 0 6 11 10 25 10 14 0 25 -4 25 -10 0 -21 20 -9 26 15 7 29
24 34 24 7z m247 -2 c13 0 23 -4 23 -10 0 -19 -45 -10 -59 13 -10 17 -11 19 0
10 7 -7 23 -13 36 -13z m149 -5 c-10 -8 -23 -12 -27 -9 -5 3 -9 0 -9 -6 0 -8
11 -9 31 -5 24 5 30 4 27 -6 -6 -18 -55 -24 -74 -8 -31 26 -12 44 51 47 20 1
20 1 1 -13z m94 5 c0 -5 -13 -10 -29 -10 -17 0 -33 5 -36 10 -4 6 8 10 29 10
20 0 36 -4 36 -10z m-306 -26 c9 -24 7 -44 -4 -44 -5 0 -11 8 -11 18 -1 16 -2
16 -6 0 -6 -23 -23 -23 -23 0 0 18 18 42 31 42 4 0 10 -7 13 -16z m-316 -11
c6 -19 -33 -16 -49 3 -11 14 -9 15 16 12 16 -1 30 -9 33 -15z m831 -19 c-12
-14 -49 -20 -49 -7 0 3 7 15 17 25 12 14 19 15 30 7 10 -9 10 -15 2 -25z
m-575 4 c3 -13 1 -27 -4 -32 -7 -7 -10 -6 -10 2 0 7 -4 12 -10 12 -5 0 -10
-11 -10 -25 0 -14 5 -25 12 -25 14 0 48 -30 48 -42 0 -4 -9 -8 -20 -8 -11 0
-20 7 -20 15 0 8 -9 15 -20 15 -18 0 -20 7 -20 55 0 51 2 55 24 55 16 0 26 -7
30 -22z m508 -4 c-4 -24 -6 -24 -21 -9 -14 14 -14 17 -1 25 23 15 28 12 22
-16z m123 17 c6 -11 -33 -36 -42 -27 -7 7 16 36 28 36 4 0 10 -4 14 -9z m-195
-13 c0 -5 4 -7 9 -3 5 3 12 1 15 -4 3 -5 -10 -9 -29 -9 -19 0 -35 4 -35 9 0 4
-6 6 -14 3 -8 -3 -17 -1 -20 5 -4 6 9 10 34 9 22 0 40 -5 40 -10z m290 -13 c0
-18 -5 -25 -20 -25 -21 0 -24 8 -14 34 10 25 34 19 34 -9z m-924 -22 c-4 -4
-11 -1 -16 7 -5 8 -12 11 -16 7 -13 -12 6 -21 43 -22 20 0 38 -5 40 -12 3 -9
-16 -12 -66 -11 -39 0 -71 4 -71 9 0 5 9 9 20 9 13 0 20 7 20 19 0 11 6 21 13
24 15 6 44 -20 33 -30z m114 22 c0 -10 -10 -15 -29 -15 -42 0 -48 18 -9 23 18
2 34 5 36 5 1 1 2 -5 2 -13z m436 0 c17 -13 17 -14 2 -15 -10 0 -18 5 -18 11
0 8 -5 8 -15 -1 -12 -10 -15 -10 -15 4 0 20 20 21 46 1z m324 3 c0 -7 -11 -18
-25 -25 -28 -12 -35 3 -13 25 16 16 38 15 38 0z m-380 -7 c0 -14 -10 -18 -67
-26 -36 -5 -53 -3 -53 4 0 6 18 11 41 11 24 0 38 4 34 10 -4 6 5 10 19 10 14
0 26 -4 26 -9z m-660 -11 c0 -5 -6 -10 -14 -10 -7 0 -16 -9 -19 -21 -7 -27
-27 -15 -27 17 0 20 5 24 30 24 17 0 30 -4 30 -10z m530 -13 c0 -24 -45 -75
-56 -65 -8 9 15 48 28 48 9 0 9 3 0 12 -18 18 -15 28 8 28 14 0 20 -7 20 -23z
m270 -2 c0 -21 -30 -31 -41 -14 -14 23 -11 29 16 29 16 0 25 -6 25 -15z m50 4
c0 -22 -22 -49 -40 -49 -11 0 -28 -9 -39 -21 -11 -12 -27 -19 -38 -16 -17 4
-17 4 2 12 11 5 30 16 43 26 13 10 31 15 40 12 15 -6 15 -4 4 10 -8 9 -11 21
-7 27 8 13 35 13 35 -1z m-797 -35 c-4 -11 4 -14 36 -14 29 0 41 -4 41 -15 0
-25 -70 -12 -92 19 -11 14 -16 30 -13 36 10 16 35 -8 28 -26z m357 5 c0 -12
-27 -11 -35 1 -11 17 5 32 21 19 8 -6 14 -15 14 -20z m281 15 c12 -15 11 -16
-11 -9 -20 6 -23 5 -12 -6 6 -7 12 -27 12 -45 0 -28 -4 -32 -32 -37 -19 -2
-36 0 -40 7 -5 7 -8 6 -8 -4 0 -13 -1 -13 -10 0 -6 10 -10 11 -10 3 0 -7 -4
-13 -10 -13 -5 0 -10 9 -10 20 0 15 7 20 28 21 16 1 20 3 10 6 -23 6 -23 26
-1 21 10 -2 22 -13 28 -24 7 -15 16 -19 30 -14 18 6 17 7 -4 13 -20 5 -23 11
-18 34 4 24 4 26 -8 10 -11 -15 -14 -15 -24 -3 -16 19 2 30 34 22 13 -3 27 -2
30 4 8 13 10 13 26 -6z m249 -7 c0 -9 10 -12 31 -9 24 3 30 1 24 -8 -4 -7 -20
-10 -37 -8 -16 3 -31 1 -34 -4 -9 -14 -34 -9 -34 7 0 18 -16 20 -23 3 -3 -7
-6 -3 -6 10 -1 19 4 22 39 22 27 0 40 -4 40 -13z m-485 -46 c-4 -12 -12 -20
-18 -18 -15 5 -21 33 -12 54 10 27 39 -8 30 -36z m295 34 c0 -16 -46 -32 -58
-20 -8 8 26 35 45 35 7 0 13 -7 13 -15z m-170 -3 c0 -14 -23 -32 -42 -32 -21
0 -23 11 -6 28 13 13 48 16 48 4z m-290 -12 c0 -5 -17 -11 -37 -11 -24 -1 -29
-3 -15 -6 12 -2 22 -9 22 -14 0 -11 -49 -1 -67 14 -25 19 -12 27 42 27 30 0
55 -4 55 -10z m790 0 c0 -5 -13 -10 -30 -10 -16 0 -30 5 -30 10 0 6 14 10 30
10 17 0 30 -4 30 -10z m-1082 -17 c2 -8 -6 -13 -22 -13 -17 0 -26 5 -26 16 0
19 41 16 48 -3z m332 -32 c0 -36 -2 -39 -32 -44 -18 -3 -37 -1 -42 4 -6 5 -1
9 14 9 23 0 23 0 4 15 -18 14 -18 14 9 15 20 0 27 5 27 20 0 11 5 20 10 20 6
0 10 -17 10 -39z m520 24 c0 -19 -11 -19 -36 0 -18 14 -18 14 9 15 17 0 27 -5
27 -15z m70 -10 c0 -9 -9 -15 -25 -15 -24 0 -32 10 -18 23 12 13 43 7 43 -8z
m60 0 c0 -9 -9 -15 -25 -15 -16 0 -25 6 -25 15 0 9 9 15 25 15 16 0 25 -6 25
-15z m90 6 c0 -11 -25 -21 -52 -21 -17 0 -18 3 -8 15 13 16 60 21 60 6z m-948
-21 c24 0 23 -26 -2 -33 -13 -3 -20 0 -20 9 0 8 -7 14 -15 14 -16 0 -20 12 -8
24 4 3 11 2 17 -4 5 -5 18 -10 28 -10z m428 0 c0 -11 -7 -20 -15 -20 -8 0 -15
9 -15 20 0 11 7 20 15 20 8 0 15 -9 15 -20z m257 12 c16 -10 20 -44 6 -49 -7
-3 -13 2 -13 11 0 17 -26 22 -32 6 -4 -12 -78 7 -78 20 0 12 3 12 33 1 18 -7
30 -6 43 4 22 17 25 17 41 7z m-579 -29 c3 -19 -1 -23 -21 -23 -14 0 -28 6
-30 13 -4 9 -8 8 -16 -3 -9 -12 -11 -9 -11 13 0 26 2 28 38 25 30 -2 38 -7 40
-25z m211 -7 c-1 -16 -2 -17 -6 -3 -5 21 -23 23 -23 2 0 -8 -4 -15 -10 -15
-13 0 -13 23 1 37 17 17 39 4 38 -21z m61 19 c0 -8 -9 -15 -20 -15 -11 0 -20
7 -20 15 0 8 9 15 20 15 11 0 20 -7 20 -15z m554 -37 c-30 -100 -138 -237
-235 -299 -122 -78 -294 -108 -433 -75 -113 27 -192 71 -276 156 -80 80 -145
184 -123 198 6 4 48 7 92 6 58 -2 85 -7 97 -18 9 -9 11 -16 4 -16 -6 0 -8 -5
-5 -11 5 -6 13 -3 22 10 11 16 25 21 59 21 24 0 44 -4 44 -10 0 -5 5 -10 11
-10 5 0 8 4 5 9 -9 15 33 21 146 21 60 0 110 4 113 10 3 6 16 10 28 10 19 0
22 -6 25 -45 2 -40 1 -45 -19 -45 -21 0 -21 1 -4 26 9 14 14 28 12 31 -3 2
-10 -4 -16 -14 -7 -13 -19 -19 -38 -18 -16 1 -19 0 -6 -2 12 -2 24 -14 27 -27
5 -22 11 -24 86 -25 76 -1 82 0 104 25 15 19 25 24 30 16 4 -7 2 -12 -3 -12
-6 0 -11 -4 -11 -10 0 -19 28 -10 33 10 3 14 0 20 -11 20 -8 0 -12 3 -9 7 4 3
0 14 -8 23 -13 15 -7 17 75 29 49 8 87 18 84 22 -3 5 20 9 51 9 54 0 56 -1 49
-22z m-274 -62 c-20 -25 -30 -19 -30 21 l0 37 22 -21 c18 -18 19 -24 8 -37z
m-42 27 c2 -8 -6 -13 -22 -13 -25 0 -33 10 -19 24 10 10 36 3 41 -11z m0 -40
c2 -8 -6 -13 -22 -13 -25 0 -33 10 -19 24 10 10 36 3 41 -11z m-422 -355 c-6
-4 3 -6 19 -5 17 1 34 7 38 12 6 6 10 6 14 -2 2 -7 12 -13 21 -13 15 0 15 2 2
10 -13 8 -13 10 1 10 9 0 20 -7 23 -16 5 -12 10 -13 19 -6 13 11 108 9 126 -3
6 -3 13 0 16 7 4 10 21 13 60 10 46 -3 54 -1 49 12 -4 11 0 16 13 16 15 0 18
-6 15 -43 -6 -71 14 -124 65 -173 l45 -44 -27 -10 c-36 -14 -102 -12 -147 4
l-38 13 -24 -41 c-13 -22 -38 -54 -56 -71 -29 -28 -32 -29 -58 -15 -15 9 -42
38 -61 65 -27 41 -38 50 -60 47 -14 -1 -51 -5 -81 -8 -31 -3 -67 -1 -84 5
l-29 12 40 34 c55 47 73 89 73 171 0 66 0 67 19 48 12 -13 15 -21 7 -26z"/>
<path d="M1450 2410 c0 -5 25 -10 56 -10 34 0 53 4 49 10 -3 6 -28 10 -56 10
-27 0 -49 -4 -49 -10z"/>
<path d="M1420 2370 c0 -6 33 -10 80 -10 47 0 80 4 80 10 0 6 -33 10 -80 10
-47 0 -80 -4 -80 -10z"/>
<path d="M1237 2333 c18 -2 50 -2 70 0 21 2 7 4 -32 4 -38 0 -55 -2 -38 -4z"/>
<path d="M1448 2333 c28 -2 76 -2 105 0 28 2 5 3 -53 3 -58 0 -81 -1 -52 -3z"/>
<path d="M1697 2333 c18 -2 50 -2 70 0 21 2 7 4 -32 4 -38 0 -55 -2 -38 -4z"/>
<path d="M1250 2298 c0 -4 115 -8 255 -8 168 0 255 3 255 10 0 7 -85 10 -255
9 -140 -1 -255 -6 -255 -11z"/>
<path d="M1275 2260 c4 -6 92 -10 231 -10 143 0 224 4 224 10 0 6 -84 10 -231
10 -151 0 -228 -3 -224 -10z"/>
<path d="M1392 2223 c59 -2 158 -2 220 0 62 1 14 3 -107 3 -121 0 -172 -2
-113 -3z"/>
<path d="M1403 2183 c59 -2 154 -2 210 0 56 1 8 3 -108 3 -115 0 -161 -2 -102
-3z"/>
<path d="M1443 2043 c26 -2 67 -2 90 0 23 2 2 3 -48 3 -49 0 -68 -1 -42 -3z"/>
<path d="M1413 2023 c43 -2 110 -2 150 0 40 1 5 3 -78 3 -82 0 -115 -2 -72 -3z"/>
<path d="M1393 2003 c65 -2 168 -2 230 0 62 1 9 3 -118 3 -126 0 -177 -2 -112
-3z"/>
<path d="M1368 1973 c79 -2 205 -2 280 0 75 1 11 3 -143 3 -154 0 -216 -2
-137 -3z"/>
<path d="M1358 1953 c79 -2 205 -2 280 0 75 1 11 3 -143 3 -154 0 -216 -2
-137 -3z"/>
<path d="M1198 1923 c28 -2 76 -2 105 0 28 2 5 3 -53 3 -58 0 -81 -1 -52 -3z"/>
<path d="M1422 1923 c37 -2 100 -2 140 0 40 1 10 3 -67 3 -77 0 -110 -1 -73
-3z"/>
<path d="M1120 1898 c0 -5 59 -8 130 -8 72 0 130 3 130 8 0 4 -59 7 -130 7
-72 0 -130 -3 -130 -7z"/>
<path d="M1620 1900 c0 -5 18 -10 40 -10 22 0 40 5 40 10 0 6 -18 10 -40 10
-22 0 -40 -4 -40 -10z"/>
<path d="M1750 1898 c0 -4 30 -8 67 -8 36 0 63 3 60 6 -10 10 -127 11 -127 2z"/>
<path d="M1148 1873 c34 -2 88 -2 120 0 31 2 3 3 -63 3 -66 0 -92 -1 -57 -3z"/>
<path d="M1673 1873 c42 -2 112 -2 155 0 42 1 7 3 -78 3 -85 0 -120 -2 -77 -3z"/>
<path d="M1278 1843 c17 -2 47 -2 65 0 17 2 3 4 -33 4 -36 0 -50 -2 -32 -4z"/>
<path d="M1623 1843 c59 -2 154 -2 210 0 56 1 8 3 -108 3 -115 0 -161 -2 -102
-3z"/>
<path d="M1078 1823 c18 -2 45 -2 60 0 15 2 0 4 -33 4 -33 0 -45 -2 -27 -4z"/>
<path d="M1313 1823 c32 -2 81 -2 110 0 29 2 3 3 -58 3 -60 0 -84 -1 -52 -3z"/>
<path d="M1568 1823 c28 -2 76 -2 105 0 28 2 5 3 -53 3 -58 0 -81 -1 -52 -3z"/>
<path d="M1828 1823 c23 -2 61 -2 85 0 23 2 4 4 -43 4 -47 0 -66 -2 -42 -4z"/>
<path d="M1148 1793 c23 -2 61 -2 85 0 23 2 4 4 -43 4 -47 0 -66 -2 -42 -4z"/>
<path d="M1648 1793 c28 -2 76 -2 105 0 28 2 5 3 -53 3 -58 0 -81 -1 -52 -3z"/>
<path d="M1198 1773 c34 -2 88 -2 120 0 31 2 3 3 -63 3 -66 0 -92 -1 -57 -3z"/>
<path d="M1555 1750 c3 -5 17 -10 31 -10 13 0 24 5 24 10 0 6 -14 10 -31 10
-17 0 -28 -4 -24 -10z"/>
<path d="M1700 1751 c0 -4 38 -9 85 -10 50 0 85 3 85 9 0 6 -36 10 -85 10 -47
0 -85 -4 -85 -9z"/>
<path d="M670 1690 c0 -6 43 -10 109 -10 63 0 112 4 116 10 4 6 -35 10 -109
10 -71 0 -116 -4 -116 -10z"/>
<path d="M580 1540 c0 -6 55 -10 144 -10 86 0 147 4 151 10 4 6 -47 10 -144
10 -94 0 -151 -4 -151 -10z"/>
<path d="M556 1502 c5 -4 81 -5 169 -2 l160 6 -169 2 c-94 1 -166 -2 -160 -6z"/>
<path d="M660 1280 c0 -5 20 -10 44 -10 25 0 48 5 51 10 4 6 -13 10 -44 10
-28 0 -51 -4 -51 -10z"/>
<path d="M1911 1298 c-1 -21 -17 -24 -24 -5 -3 6 -6 2 -6 -11 -1 -18 -5 -22
-19 -18 -15 5 -21 -2 -32 -34 -9 -28 -19 -40 -32 -40 -45 0 -58 -52 -17 -65
24 -8 79 3 79 16 0 6 -8 6 -19 -1 -11 -5 -28 -10 -38 -10 -12 1 -8 5 12 15
l30 14 -35 -5 -35 -5 23 17 c17 12 39 17 72 15 32 -2 57 3 74 15 l26 17 -24
31 c-13 17 -26 40 -29 51 -4 17 -5 17 -6 3z m-1 -42 c0 -8 3 -21 6 -30 4 -11
1 -16 -10 -16 -11 0 -16 9 -16 30 0 17 5 30 10 30 6 0 10 -6 10 -14z m-30 -25
c0 -10 -9 -21 -20 -24 -21 -5 -24 1 -14 27 9 22 34 20 34 -3z"/>
<path d="M1966 1285 c4 -8 12 -15 19 -15 7 0 15 7 19 15 4 11 -1 15 -19 15
-18 0 -23 -4 -19 -15z"/>
<path d="M1110 1281 c0 -5 -8 -7 -18 -4 -11 2 -19 -1 -20 -9 -8 -64 -9 -62 30
-69 31 -5 41 -2 60 18 12 12 17 23 12 23 -5 0 -22 11 -37 25 -15 14 -27 22
-27 16z"/>
<path d="M1318 1260 c-35 -21 -27 -30 27 -30 28 0 47 6 56 17 13 15 11 16 -14
11 -16 -3 -30 0 -35 7 -5 9 -14 8 -34 -5z"/>
<path d="M1465 1231 c-29 -7 -28 -7 15 -13 47 -7 71 -1 49 13 -16 10 -21 10
-64 0z"/>
<path d="M1370 1213 c-23 -10 -36 -11 -38 -4 -2 6 -15 11 -28 11 -14 0 -22 -4
-19 -10 3 -5 15 -10 26 -10 10 0 19 -4 19 -10 0 -5 10 -10 23 -10 16 0 18 3 8
9 -10 6 -1 11 28 16 22 4 39 11 35 16 -7 11 -11 11 -54 -8z"/>
<path d="M1040 1204 c0 -9 24 -30 43 -37 10 -4 16 -11 13 -15 -3 -5 4 -19 15
-30 21 -24 83 -30 95 -11 4 8 -3 9 -25 4 -20 -4 -31 -3 -31 4 0 6 -8 11 -17
11 -10 1 -2 8 17 16 31 14 33 17 15 24 -19 8 -19 8 5 18 14 6 18 11 9 11 -8 1
-24 -6 -35 -14 -22 -17 -54 -20 -54 -4 0 5 -5 7 -10 4 -6 -3 -13 1 -16 9 -6
15 -24 23 -24 10z"/>
<path d="M1450 1185 c30 -7 47 -13 37 -14 -10 0 -17 -7 -14 -13 4 -14 97 -19
97 -6 0 4 -13 8 -30 8 -26 0 -34 7 -32 30 0 3 -25 6 -56 6 l-57 1 55 -12z"/>
<path d="M1550 1180 c8 -5 29 -10 45 -10 17 0 37 5 45 10 11 7 -3 10 -45 10
-42 0 -56 -3 -45 -10z"/>
<path d="M1295 1140 c-19 -8 -18 -9 5 -11 16 -1 8 -5 -20 -9 l-45 -7 52 -1
c28 -1 55 3 58 8 3 6 0 10 -7 11 -7 0 -4 4 7 9 18 8 18 9 -5 9 -14 0 -34 -4
-45 -9z"/>
<path d="M1532 1101 c-10 -6 -8 -10 10 -16 l23 -8 -23 -4 c-29 -6 -18 -23 15
-23 18 0 24 4 19 15 -3 9 0 15 9 15 8 0 15 4 15 9 0 5 -9 7 -20 4 -11 -3 -20
0 -20 6 0 13 -10 14 -28 2z"/>
<path d="M1311 1089 c-36 -14 -20 -20 30 -10 24 5 39 9 32 10 -6 1 -17 3 -25
5 -7 3 -24 0 -37 -5z"/>
<path d="M1635 1090 c19 -8 19 -9 -3 -9 -13 -1 -21 -5 -17 -10 3 -6 18 -6 36
-1 20 6 39 6 50 0 22 -12 29 -13 29 -1 0 5 -20 14 -44 20 -52 13 -80 13 -51 1z"/>
<path d="M1757 1050 c3 -11 12 -20 20 -20 8 0 11 5 8 10 -3 6 4 10 16 10 29 0
22 6 -17 13 -28 5 -31 4 -27 -13z"/>
<path d="M1565 1040 c-19 -8 -18 -9 5 -11 21 -1 19 -3 -10 -9 l-35 -7 37 -2
c31 -1 37 2 35 19 -1 22 -3 22 -32 10z"/>
<path d="M1420 1025 c7 -8 24 -14 39 -14 23 2 24 2 3 6 -12 2 -20 9 -17 14 4
5 -4 9 -16 9 -18 0 -19 -2 -9 -15z"/>
<path d="M1280 1010 c-11 -7 -1 -9 35 -9 40 1 45 3 25 9 -35 11 -43 11 -60 0z"/>
<path d="M1645 1012 c15 -17 75 -27 75 -13 0 6 -11 11 -24 11 -13 0 -33 3 -43
6 -13 5 -15 4 -8 -4z"/>
<path d="M1435 984 c19 -15 19 -15 -9 -8 -21 5 -27 4 -22 -5 4 -6 21 -11 38
-11 23 0 29 4 24 16 -3 9 -6 18 -6 20 0 2 -10 4 -22 4 -23 -1 -23 -1 -3 -16z"/>
<path d="M1552 980 c10 -16 21 -19 57 -15 24 2 49 9 54 14 7 7 -7 9 -44 5 -40
-4 -50 -3 -39 5 12 9 10 11 -13 11 -25 0 -26 -2 -15 -20z"/>
<path d="M1398 853 c56 -2 148 -2 205 0 56 1 10 3 -103 3 -113 0 -159 -2 -102
-3z"/>
<path d="M1300 820 c0 -6 75 -10 206 -10 134 0 203 3 199 10 -4 6 -83 10 -206
10 -126 0 -199 -4 -199 -10z"/>
<path d="M1290 780 c0 -6 77 -10 210 -10 133 0 210 4 210 10 0 6 -77 10 -210
10 -133 0 -210 -4 -210 -10z"/>
<path d="M1383 743 c64 -2 170 -2 235 0 64 1 11 3 -118 3 -129 0 -182 -2 -117
-3z"/>
<path d="M1372 703 c70 -2 187 -2 260 0 73 1 16 3 -127 3 -143 0 -203 -2 -133
-3z"/>
<path d="M1210 670 c0 -13 110 -13 130 0 10 7 -7 10 -57 10 -42 0 -73 -4 -73
-10z"/>
<path d="M1400 670 c0 -6 40 -10 100 -10 60 0 100 4 100 10 0 6 -40 10 -100
10 -60 0 -100 -4 -100 -10z"/>
<path d="M1670 670 c20 -13 133 -13 125 0 -3 6 -36 10 -73 10 -47 0 -63 -3
-52 -10z"/>
<path d="M1425 630 c3 -5 40 -10 81 -10 43 0 74 4 74 10 0 6 -34 10 -81 10
-51 0 -78 -4 -74 -10z"/>
<path d="M1478 593 c18 -2 45 -2 60 0 15 2 0 4 -33 4 -33 0 -45 -2 -27 -4z"/>
<path d="M2070 2213 c0 -7 -12 -13 -27 -15 -22 -2 -29 -9 -31 -31 -4 -31 20
-47 46 -30 23 14 37 62 23 76 -8 8 -11 8 -11 0z"/>
<path d="M920 2185 c0 -51 42 -74 71 -39 17 21 0 49 -32 49 -13 0 -27 5 -31
10 -4 6 -8 -4 -8 -20z"/>
<path d="M795 2080 c-3 -5 -1 -10 5 -10 6 0 8 -5 5 -10 -3 -6 -3 -19 0 -31 11
-32 59 -22 63 13 3 22 -2 30 -23 38 -33 13 -42 13 -50 0z"/>
<path d="M2152 2079 c-18 -7 -23 -15 -20 -36 3 -24 8 -28 33 -28 27 0 30 3 30
30 0 17 5 33 10 37 14 11 -25 9 -53 -3z"/>
<path d="M2250 1280 c20 -13 90 -13 90 0 0 6 -24 10 -52 10 -38 0 -49 -3 -38
-10z"/>
<path d="M815 984 c-9 -9 -13 -24 -10 -32 3 -8 0 -19 -7 -24 -8 -5 -1 -8 19
-8 30 0 63 21 63 40 0 5 -7 16 -16 24 -20 20 -29 20 -49 0z"/>
<path d="M2142 988 c-31 -31 0 -69 55 -67 15 1 21 3 12 6 -11 3 -15 11 -12 24
10 36 -29 63 -55 37z"/>
<path d="M911 961 c-8 -5 -15 -22 -16 -38 -1 -25 2 -29 26 -31 39 -3 58 31 33
59 -19 21 -23 22 -43 10z"/>
<path d="M2027 868 c-20 -11 -22 -41 -4 -56 17 -14 67 -10 67 6 0 39 -35 66
-63 50z"/>
<path d="M932 858 c-7 -7 -12 -26 -11 -42 0 -17 3 -26 5 -20 3 6 15 9 27 7 29
-6 51 19 42 47 -7 22 -44 27 -63 8z"/>
<path d="M661 2551 c-60 -56 -30 -112 48 -91 43 11 71 5 71 -15 0 -16 -47 -55
-67 -55 -8 0 -11 -4 -8 -10 20 -32 95 25 95 71 0 42 -22 54 -78 41 -53 -12
-62 -9 -62 19 0 13 11 25 31 33 25 11 28 15 16 25 -12 9 -21 6 -46 -18z"/>
<path d="M2360 2517 c0 -8 -26 -39 -59 -70 -38 -37 -55 -59 -48 -66 6 -6 26 8
58 42 l49 52 -7 -97 c-4 -63 -2 -98 4 -98 6 0 33 27 62 60 29 33 60 60 68 60
14 0 13 3 -3 21 -17 19 -19 19 -26 2 -4 -10 -23 -36 -43 -58 l-35 -40 2 99 c2
72 0 100 -9 103 -7 3 -13 -2 -13 -10z"/>
<path d="M513 2406 l-37 -33 40 -34 c21 -19 53 -48 70 -64 26 -26 33 -28 41
-16 7 11 -4 26 -49 63 -32 27 -58 53 -58 57 0 16 30 33 46 27 11 -4 15 -15 12
-35 -3 -23 0 -31 16 -35 42 -11 103 -6 117 10 11 14 9 16 -17 13 -16 -1 -44
-1 -63 -1 -26 2 -32 5 -27 18 8 21 -19 64 -39 64 -9 0 -32 -15 -52 -34z"/>
<path d="M2520 2345 c-7 -8 -39 -35 -70 -59 -47 -35 -56 -46 -48 -60 8 -15 12
-15 21 -4 21 26 115 98 126 98 15 0 14 15 -3 29 -10 9 -16 8 -26 -4z"/>
<path d="M406 2275 c-14 -18 -26 -35 -26 -38 0 -2 32 -25 70 -51 39 -27 70
-53 70 -59 0 -6 16 12 35 39 19 27 34 53 32 58 -6 18 -27 18 -27 0 0 -10 -7
-26 -16 -35 -16 -18 -18 -18 -45 -2 -26 16 -27 18 -13 34 9 10 13 23 9 30 -6
8 -13 5 -25 -12 -16 -20 -20 -21 -34 -10 -22 18 -20 37 4 54 17 12 18 16 6 20
-9 4 -24 -7 -40 -28z"/>
<path d="M2577 2262 c-9 -9 -43 -33 -75 -52 l-60 -34 30 -43 c16 -25 37 -43
47 -43 16 0 15 5 -10 31 -16 17 -29 34 -29 38 0 3 14 14 31 24 30 17 31 17 36
-3 3 -11 12 -20 19 -20 16 0 19 16 4 25 -16 10 -12 29 10 43 19 11 22 10 33
-17 9 -21 17 -27 26 -22 10 7 7 18 -14 50 -15 22 -29 41 -30 41 -1 0 -9 -8
-18 -18z"/>
<path d="M347 2193 c-11 -10 -8 -23 6 -23 6 0 32 -23 56 -51 l44 -52 -59 7
c-32 4 -69 10 -80 12 -13 4 -23 0 -27 -9 -4 -12 10 -17 69 -26 90 -13 121 -14
128 -3 6 9 -111 152 -123 152 -4 0 -11 -3 -14 -7z"/>
<path d="M2681 2133 c-1 -13 -123 -73 -148 -73 -10 0 -13 -6 -9 -16 3 -9 6
-17 6 -19 0 -1 29 13 65 32 36 19 65 31 65 27 0 -3 -18 -39 -40 -79 -58 -105
-55 -111 36 -69 41 19 82 34 91 34 10 0 13 6 9 16 -3 9 -6 17 -6 19 0 1 -30
-13 -66 -33 -37 -19 -65 -31 -63 -26 2 5 21 42 42 83 31 60 37 78 29 95 -6 12
-11 15 -11 9z"/>
<path d="M260 2019 c0 -4 -3 -14 -6 -23 -4 -11 0 -16 12 -16 11 0 50 -14 88
-30 53 -23 72 -27 78 -17 13 20 9 24 -24 31 -18 4 -59 19 -90 35 -32 15 -58
24 -58 20z"/>
<path d="M226 1923 c-3 -8 -6 -16 -6 -17 0 -2 32 -9 70 -16 39 -7 67 -16 63
-20 -4 -3 -39 -19 -78 -35 -65 -26 -95 -47 -95 -67 0 -4 6 -5 14 -2 16 6 135
-24 150 -37 15 -14 23 -11 29 11 4 16 0 20 -21 20 -15 0 -49 6 -76 13 l-50 13
83 34 c110 46 116 54 47 74 -30 9 -58 16 -63 16 -4 0 -20 6 -35 14 -23 12 -27
12 -32 -1z"/>
<path d="M2721 1911 c-7 -5 -19 -31 -26 -57 -19 -76 -64 -72 -65 4 0 23 -4 32
-12 30 -35 -12 -5 -103 36 -114 40 -10 55 2 62 45 4 23 12 48 19 58 19 26 48
-1 43 -39 -5 -29 -1 -33 19 -20 15 10 5 56 -18 81 -21 23 -36 26 -58 12z"/>
<path d="M2765 1744 c-27 -7 -67 -13 -87 -13 -34 -1 -38 -4 -38 -27 0 -20 3
-24 13 -17 16 13 154 36 167 28 11 -7 12 2 2 25 -6 13 -14 14 -57 4z"/>
<path d="M170 1687 c0 -20 6 -22 68 -25 73 -3 105 -23 95 -62 -7 -27 -45 -35
-115 -24 -55 10 -58 9 -58 -10 0 -19 7 -21 68 -24 91 -3 108 2 121 39 16 46
14 57 -14 84 -17 18 -35 25 -62 25 -21 0 -53 4 -71 9 -29 9 -32 8 -32 -12z"/>
<path d="M2657 1653 c-11 -10 -8 -60 5 -88 12 -26 48 -42 69 -30 6 4 20 28 31
52 25 56 53 56 53 0 0 -28 4 -37 15 -34 18 3 17 72 -1 94 -24 28 -62 11 -87
-37 -24 -47 -47 -57 -66 -28 -8 13 -7 26 1 48 9 23 9 30 -1 30 -7 0 -16 -3
-19 -7z"/>
<path d="M2695 1421 c-8 -15 3 -31 21 -31 9 0 14 7 12 17 -4 20 -24 28 -33 14z"/>
<path d="M204 1409 c-10 -17 13 -36 27 -22 12 12 4 33 -11 33 -5 0 -12 -5 -16
-11z"/>
<path d="M2772 1403 c4 -21 33 -25 33 -3 0 8 -8 16 -18 18 -14 3 -18 -1 -15
-15z"/>
<path d="M239 1265 c-36 -20 -52 -67 -39 -115 6 -21 18 -41 27 -44 24 -9 27 0
9 26 -23 32 -20 65 9 93 48 48 115 22 115 -45 0 -31 3 -38 15 -34 31 12 6 102
-34 124 -27 14 -71 12 -102 -5z"/>
<path d="M2637 1267 c-5 -12 3 -26 24 -45 l31 -28 -40 -12 c-25 -8 -42 -19
-45 -32 -6 -24 -10 -24 48 1 25 11 48 19 49 17 73 -98 74 -99 81 -79 4 15 -3
28 -27 50 -37 33 -33 42 23 60 21 7 39 20 42 30 4 17 0 17 -54 -4 l-58 -23
-34 41 c-28 34 -35 38 -40 24z"/>
<path d="M304 1091 c-94 -57 -36 -207 72 -187 43 9 74 48 74 95 0 43 -20 75
-60 96 -38 19 -49 19 -86 -4z m101 -36 c39 -38 30 -86 -22 -113 -32 -17 -60
-15 -83 8 -35 35 -23 90 25 118 31 18 54 14 80 -13z"/>
<path d="M2575 1063 c-7 -19 -11 -15 50 -37 28 -10 64 -26 82 -36 28 -16 32
-17 37 -3 8 20 16 14 -81 56 -69 29 -83 33 -88 20z"/>
<path d="M2535 981 c-3 -5 4 -25 15 -45 l21 -35 -45 -6 c-24 -4 -47 -13 -50
-21 -4 -11 5 -13 47 -8 l53 6 19 -48 c23 -63 31 -71 44 -45 8 14 8 21 1 21 -8
0 -40 61 -40 76 0 2 21 4 48 4 35 0 50 5 59 18 10 18 8 18 -45 10 -30 -5 -61
-7 -67 -4 -6 2 -17 22 -25 45 -13 40 -23 50 -35 32z"/>
<path d="M480 923 c0 -13 -112 -93 -129 -93 -6 0 -11 -4 -11 -9 0 -24 23 -18
72 19 29 22 54 36 56 32 1 -4 -9 -41 -23 -82 -39 -116 -37 -119 50 -60 41 27
79 50 85 50 7 0 7 7 -1 22 -7 14 -14 18 -16 11 -4 -11 -97 -83 -107 -83 -2 0
9 39 25 87 26 78 28 89 14 102 -10 10 -15 11 -15 4z"/>
<path d="M2434 812 c-7 -12 -7 -24 3 -42 20 -39 16 -45 -34 -45 -28 0 -48 -5
-50 -12 -3 -10 11 -13 50 -13 l56 0 6 -55 c8 -60 16 -72 34 -51 8 10 7 21 -4
42 -27 52 -21 62 33 56 36 -3 51 0 61 12 12 14 7 16 -52 16 l-65 0 -7 43 c-10
58 -18 71 -31 49z"/>
<path d="M600 748 c0 -9 -11 -25 -25 -36 -13 -11 -41 -34 -62 -52 l-37 -33 42
-38 c53 -50 99 -53 143 -10 32 33 36 58 15 99 -21 40 -76 90 -76 70z m49 -69
c42 -75 -63 -141 -119 -75 -12 15 -8 22 36 61 27 24 54 43 59 41 6 -1 16 -14
24 -27z"/>
<path d="M2303 662 c-9 -6 -10 -17 -3 -42 5 -18 8 -35 6 -38 -2 -2 -20 1 -39
6 -26 7 -40 7 -53 -2 -14 -11 -8 -14 40 -25 l56 -12 0 -66 c0 -66 0 -66 20
-48 14 13 17 22 10 29 -5 5 -10 25 -10 44 0 31 2 34 23 28 59 -17 73 -17 86
-2 12 14 10 16 -10 16 -13 0 -40 5 -60 10 -33 9 -37 14 -45 60 -6 36 -12 47
-21 42z"/>
<path d="M738 592 c-9 -15 -37 -48 -61 -75 -37 -39 -42 -49 -29 -56 12 -7 27
5 65 53 27 33 54 64 60 68 9 5 8 12 -3 23 -14 13 -17 12 -32 -13z"/>
<path d="M799 554 c-9 -11 -8 -14 2 -14 41 -1 41 -17 4 -76 -21 -33 -43 -62
-49 -66 -7 -5 -4 -12 9 -22 18 -13 20 -13 24 1 6 28 73 123 87 123 7 0 17 -7
22 -16 7 -12 10 -13 19 -2 8 10 -3 22 -48 50 -49 31 -60 34 -70 22z"/>
<path d="M2131 531 c-65 -34 -79 -100 -32 -153 22 -25 37 -32 65 -32 43 0 90
32 94 65 4 22 2 21 -26 -9 -33 -36 -50 -39 -91 -17 -63 32 -53 108 17 129 22
7 29 21 14 29 -4 3 -22 -3 -41 -12z"/>
<path d="M914 393 c-51 -51 -67 -73 -57 -77 8 -3 24 6 37 21 22 25 25 26 55
13 30 -12 32 -16 29 -51 -2 -27 1 -40 11 -44 7 -3 15 -4 16 -3 1 2 5 46 8 98
5 84 4 97 -11 105 -14 8 -31 -4 -88 -62z m73 -30 c-3 -2 -15 1 -27 7 l-22 12
24 25 23 25 3 -32 c2 -18 1 -34 -1 -37z"/>
<path d="M1955 438 c-47 -26 -65 -51 -65 -91 0 -50 43 -97 90 -97 45 0 90 26
90 52 l0 21 -23 -21 c-50 -47 -127 -14 -127 54 0 37 29 64 68 64 14 0 22 5 20
13 -6 16 -29 19 -53 5z"/>
<path d="M1213 366 c3 -9 -24 -99 -48 -158 -5 -14 -2 -18 12 -18 11 0 19 7 20
18 1 11 9 45 19 78 l18 59 16 -70 c28 -120 25 -119 76 -35 l45 75 -3 -77 c-3
-66 -1 -78 14 -81 15 -4 17 7 20 89 3 86 1 95 -17 100 -10 4 -21 3 -22 -2 -10
-28 -71 -115 -75 -108 -3 5 -11 37 -18 71 -10 52 -16 62 -37 66 -15 3 -22 0
-20 -7z"/>
<path d="M1733 361 c-51 -32 -55 -99 -10 -148 36 -40 147 -26 147 19 0 5 -3 8
-7 6 -5 -2 -20 -10 -35 -17 -39 -20 -76 -7 -95 34 -13 28 -14 39 -5 60 14 29
50 46 82 38 17 -4 21 -2 18 8 -7 22 -59 22 -95 0z"/>
<path d="M1478 247 l3 -93 54 6 c71 8 105 38 105 92 0 60 -34 88 -107 88 l-58
0 3 -93z m112 53 c43 -43 11 -120 -50 -120 l-30 0 0 70 0 70 30 0 c17 0 39 -9
50 -20z"/>
</g>
</svg>
