<?xml version="1.0" standalone="no"?>
<!DOCTYPE svg PUBLIC "-//W3C//DTD SVG 20010904//EN"
 "http://www.w3.org/TR/2001/REC-SVG-20010904/DTD/svg10.dtd">
<svg version="1.0" xmlns="http://www.w3.org/2000/svg"
 width="175.000000pt" height="181.000000pt" viewBox="0 0 175.000000 181.000000"
 preserveAspectRatio="xMidYMid meet">
<metadata>
Created by potrace 1.10, written by Peter Selinger 2001-2011
</metadata>
<g transform="translate(0.000000,181.000000) scale(0.100000,-0.100000)"
fill="#000000" stroke="none">
<path d="M807 1775 c-8 -18 11 -31 25 -17 11 11 3 32 -12 32 -4 0 -10 -7 -13
-15z"/>
<path d="M865 1781 c-8 -15 3 -31 21 -31 9 0 14 7 12 17 -4 20 -24 28 -33 14z"/>
<path d="M937 1784 c-14 -15 -6 -34 14 -34 14 0 19 5 17 17 -3 18 -20 27 -31
17z"/>
<path d="M750 1759 c0 -24 23 -21 28 4 2 10 -3 17 -12 17 -10 0 -16 -9 -16
-21z"/>
<path d="M994 1769 c-10 -17 13 -36 27 -22 12 12 4 33 -11 33 -5 0 -12 -5 -16
-11z"/>
<path d="M1057 1763 c-13 -12 -7 -33 8 -33 8 0 15 9 15 20 0 20 -11 26 -23 13z"/>
<path d="M1106 1741 c-7 -11 18 -33 27 -24 4 3 7 12 7 20 0 15 -26 18 -34 4z"/>
<path d="M574 1729 c-10 -17 13 -36 27 -22 12 12 4 33 -11 33 -5 0 -12 -5 -16
-11z"/>
<path d="M1160 1716 c0 -21 21 -31 31 -15 14 22 11 29 -11 29 -11 0 -20 -6
-20 -14z"/>
<path d="M520 1700 c0 -11 7 -20 15 -20 8 0 15 9 15 20 0 11 -7 20 -15 20 -8
0 -15 -9 -15 -20z"/>
<path d="M632 1686 c-56 -19 -119 -47 -140 -63 -20 -16 -62 -45 -94 -65 -125
-82 -197 -172 -263 -331 -67 -163 -74 -324 -25 -560 11 -57 38 -114 83 -179
17 -26 43 -66 57 -89 14 -23 50 -60 80 -82 30 -22 76 -61 101 -85 56 -52 107
-63 124 -24 14 32 39 29 31 -3 -5 -19 0 -32 17 -49 33 -33 82 -45 212 -52 131
-7 252 7 315 39 37 18 45 27 45 50 -1 33 8 34 28 4 l15 -22 45 24 c25 12 68
42 96 65 27 22 67 55 89 73 42 34 167 222 188 282 30 90 46 233 39 365 -7 124
-10 137 -51 239 -61 150 -137 249 -259 335 -106 75 -158 102 -251 132 -76 24
-102 27 -232 28 -142 2 -151 0 -250 -32z m388 7 c47 -8 110 -25 140 -37 72
-30 250 -147 294 -194 104 -111 187 -286 200 -422 14 -144 14 -175 0 -240 -8
-36 -19 -92 -25 -125 -6 -35 -22 -79 -39 -105 -16 -25 -47 -74 -70 -110 -22
-36 -45 -72 -52 -81 -15 -18 -230 -179 -239 -179 -4 0 -23 28 -44 62 l-37 62
29 24 c108 91 135 118 181 185 73 105 109 182 124 263 17 97 15 144 -10 262
-23 109 -34 136 -79 194 -15 20 -39 55 -53 78 -54 90 -247 197 -387 215 -41 5
-52 11 -58 28 l-6 22 -11 -22 c-8 -16 -23 -24 -57 -29 -187 -26 -385 -142
-451 -266 -47 -86 -79 -157 -85 -185 -26 -128 -32 -256 -14 -333 30 -133 147
-298 263 -370 63 -39 63 -43 25 -127 -10 -23 -19 -47 -19 -52 0 -26 -48 -9
-85 30 -22 23 -66 59 -98 81 -37 25 -71 60 -93 93 -19 30 -34 57 -34 61 0 3
-13 23 -29 43 -45 58 -63 100 -83 201 -14 68 -20 133 -19 232 l1 138 44 111
c76 188 124 248 294 362 111 75 217 120 312 134 19 3 37 7 38 8 10 9 157 2
232 -12z m-170 -171 c0 -14 -11 -21 -46 -28 l-46 -9 36 -40 c19 -22 35 -35 36
-29 0 6 -9 19 -20 29 -31 28 -24 36 18 18 20 -10 38 -18 40 -19 2 -1 -7 -18
-19 -39 -20 -33 -24 -35 -29 -19 -6 15 -8 12 -12 -14 -4 -31 12 -46 27 -23 11
18 61 22 91 6 38 -18 70 -53 59 -63 -4 -4 -10 -1 -12 6 -6 17 -23 15 -23 -3 0
-8 -4 -15 -10 -15 -5 0 -10 8 -10 18 0 9 -5 24 -11 32 -7 11 -9 5 -7 -24 2
-25 -2 -41 -9 -43 -9 -3 -14 10 -15 44 l-2 48 -3 -48 c-5 -57 -28 -60 -28 -4
0 46 -11 48 -20 5 -6 -27 -9 -29 -19 -16 -10 14 -13 14 -26 0 -18 -20 -27 2
-10 24 7 8 10 17 8 20 -3 3 -16 -9 -28 -25 -20 -28 -50 -42 -50 -23 0 4 18 26
40 47 22 21 40 44 40 49 0 6 -26 -15 -58 -47 -47 -47 -64 -57 -91 -57 -33 0
-31 2 57 68 51 37 88 68 83 70 -5 2 -51 -29 -102 -67 -91 -68 -96 -71 -151
-71 l-58 0 0 -42 c0 -42 -2 -44 -75 -96 -65 -46 -90 -72 -69 -72 3 0 36 25 75
55 l69 56 0 -57 0 -56 -85 -90 c-47 -50 -85 -96 -85 -102 0 -6 37 26 81 72 45
45 83 82 85 82 2 0 4 -37 4 -82 0 -68 -4 -89 -22 -118 -69 -110 -88 -144 -85
-153 2 -6 25 25 51 67 50 81 70 88 64 25 -2 -26 -8 -35 -24 -37 -16 -2 -24
-13 -29 -40 -4 -20 -13 -44 -21 -53 -9 -9 -19 -30 -23 -45 -8 -28 -10 -26 -45
48 -48 102 -59 159 -53 281 7 155 12 174 81 305 35 66 63 105 100 137 69 61
193 124 296 151 47 12 86 23 88 23 1 1 2 -7 2 -17z m40 -22 c0 -42 -14 -54
-25 -20 -7 23 2 60 16 60 5 0 9 -18 9 -40z m170 -2 c64 -20 210 -108 241 -144
9 -11 28 -39 42 -64 15 -25 42 -66 61 -92 20 -28 36 -65 41 -93 3 -26 9 -57
11 -68 23 -109 25 -134 14 -196 -13 -76 -47 -179 -67 -202 -7 -8 -13 -18 -13
-22 0 -18 -99 -143 -144 -184 -48 -41 -59 -46 -105 -48 -55 -2 -70 7 -51 31 8
8 11 31 8 58 l-5 45 64 0 c58 0 65 -2 75 -25 15 -32 30 -31 22 1 -5 20 -3 24
10 19 12 -5 16 0 16 22 0 24 8 32 39 47 26 12 46 31 61 61 l24 43 -43 68 c-23
37 -41 68 -39 69 2 1 16 6 33 12 16 5 39 24 51 41 l22 33 15 -23 c12 -17 16
-18 16 -6 1 9 -6 22 -14 29 -9 7 -15 29 -15 52 0 34 -2 39 -14 29 -10 -8 -13
-23 -9 -46 5 -30 1 -39 -30 -70 -26 -26 -43 -35 -69 -35 -62 0 -63 3 -60 223
2 117 7 197 12 197 16 0 13 -377 -2 -383 -7 -3 -3 -6 10 -6 31 -1 62 33 62 68
0 37 17 49 38 27 16 -16 16 -18 -1 -31 -10 -7 -17 -22 -15 -32 2 -14 8 -10 25
17 l21 34 -51 53 c-48 51 -52 59 -57 114 -3 32 -4 59 -3 59 1 0 32 -22 68 -50
58 -44 85 -59 85 -46 0 2 -34 29 -75 61 -72 55 -75 59 -75 99 l0 41 -59 1
c-57 1 -64 4 -151 68 -51 37 -94 65 -97 62 -3 -2 33 -32 79 -66 45 -34 84 -66
86 -71 9 -23 -67 7 -99 39 -86 88 -112 97 -33 12 37 -39 43 -50 28 -50 -25 0
-79 67 -87 106 -5 26 -1 36 24 60 34 33 37 44 9 44 -11 0 -20 -4 -20 -10 0 -5
-9 -10 -20 -10 -11 0 -20 -4 -20 -10 0 -5 7 -7 16 -3 12 4 15 2 12 -8 -3 -8
-16 -13 -32 -11 -30 3 -33 -6 -11 -34 22 -30 19 -53 -4 -29 -22 23 -37 65 -23
65 6 0 13 11 16 25 5 19 13 25 34 26 15 0 21 3 12 6 -24 9 -40 25 -35 33 6 9
43 1 145 -32z m48 -235 l72 -5 0 -164 c0 -151 -1 -164 -19 -174 -13 -7 -28 -7
-46 0 -34 13 -55 13 -55 -1 0 -6 9 -9 19 -6 31 8 41 -6 34 -47 -5 -33 -9 -37
-29 -33 -13 2 -24 0 -24 -4 0 -5 14 -9 30 -9 23 0 30 -5 30 -19 0 -11 -6 -22
-12 -24 -7 -3 -3 -6 10 -6 13 -1 22 -7 22 -16 0 -12 -7 -14 -26 -9 -19 5 -25
4 -20 -5 4 -6 13 -11 20 -11 22 0 66 -25 66 -37 0 -17 -1 -17 -72 13 -48 20
-71 24 -107 20 -25 -4 -56 -7 -68 -7 -25 -1 -31 -14 -10 -22 9 -4 8 -8 -3 -16
-11 -8 -16 -6 -21 7 -9 26 1 52 22 52 10 0 21 5 25 11 5 8 -1 10 -20 7 -21 -4
-26 -1 -26 15 0 14 5 18 20 14 11 -3 23 -1 26 4 3 5 -6 9 -20 9 -16 0 -26 6
-26 15 0 10 10 15 31 15 16 0 28 4 24 9 -3 5 -17 8 -30 5 -41 -7 -30 21 13 34
l37 11 -37 -3 -38 -2 0 43 c0 36 3 43 19 43 11 0 23 5 27 11 4 7 -4 10 -22 7
-28 -3 -29 -1 -32 40 -3 39 -1 42 22 42 14 0 26 5 26 11 0 7 -10 9 -25 5 -25
-6 -25 -6 -25 67 0 58 4 77 18 90 22 20 82 37 107 30 11 -3 53 -7 93 -10z
m-250 -9 c22 -15 22 -15 22 -346 l0 -330 -22 6 c-13 4 -42 10 -65 13 -23 3
-44 12 -47 19 -3 8 0 14 7 14 7 0 -1 7 -17 15 -34 18 -45 13 -22 -11 9 -9 30
-42 45 -73 39 -75 73 -95 168 -95 67 -1 75 1 99 27 25 27 27 27 45 11 23 -21
24 -47 3 -84 -23 -38 -75 -60 -155 -67 -115 -10 -194 34 -249 139 -18 34 -40
71 -49 82 -25 29 -88 57 -142 63 -38 4 -49 9 -45 20 4 8 6 23 6 33 0 20 12 25
74 35 47 7 99 -9 145 -43 25 -18 35 -22 41 -12 4 7 13 9 19 6 6 -4 11 -2 11 3
0 6 -13 11 -29 11 -16 0 -34 7 -41 15 -10 13 -9 15 11 17 13 1 -1 4 -31 7
l-55 6 -3 268 -2 267 128 0 c99 0 132 -3 150 -16z m352 -148 c0 -99 -4 -167
-10 -171 -7 -4 -10 53 -10 164 0 107 4 171 10 171 6 0 10 -61 10 -164z m-700
-101 c0 -163 -4 -255 -10 -255 -6 0 -10 92 -10 255 0 163 4 255 10 255 6 0 10
-92 10 -255z m30 114 c0 -91 -4 -138 -10 -134 -6 4 -10 62 -10 141 0 83 4 134
10 134 6 0 10 -54 10 -141z m30 16 c0 -76 -4 -125 -10 -125 -6 0 -8 44 -5 120
3 66 5 122 5 125 0 3 2 5 5 5 3 0 5 -56 5 -125z m660 -213 c-5 -2 -10 -15 -10
-28 0 -20 -5 -24 -28 -24 -15 0 -38 -7 -50 -16 -19 -13 -22 -13 -22 0 0 19 57
66 81 66 18 0 19 8 19 133 0 72 4 150 8 172 4 26 8 -20 10 -130 2 -110 -1
-171 -8 -173z m80 103 c10 -12 11 -30 4 -72 -13 -83 -29 -76 -29 12 0 77 4 86
25 60z m-770 -190 c0 -57 -4 -95 -10 -95 -6 0 -10 38 -10 95 0 57 4 95 10 95
6 0 10 -38 10 -95z m26 -12 c-7 -105 -16 -104 -16 1 0 56 4 85 10 81 6 -4 8
-37 6 -82z m614 -3 c0 -33 -3 -40 -19 -40 -27 0 -31 31 -8 58 11 12 22 22 24
22 2 0 3 -18 3 -40z m30 5 c0 -19 -4 -35 -10 -35 -5 0 -10 16 -10 35 0 19 5
35 10 35 6 0 10 -16 10 -35z m82 -60 c-15 -5 -39 -18 -54 -28 -35 -24 -82 -19
-86 8 -2 17 6 22 50 33 30 6 65 12 78 12 18 0 21 3 11 9 -8 5 -10 14 -5 22 6
10 11 5 20 -16 11 -28 11 -31 -14 -40z m32 -11 c34 -13 7 -64 -33 -64 -8 0 -9
39 -2 68 2 4 19 2 35 -4z m-224 -62 c25 -12 62 -17 128 -17 87 0 95 2 113 24
23 28 30 24 31 -18 1 -45 -41 -86 -104 -102 -64 -15 -143 -6 -223 26 -34 14
-67 25 -73 25 -7 0 -12 6 -12 13 0 6 -3 22 -6 34 -12 44 68 52 146 15z m-154
-38 c-3 -9 -6 -18 -6 -20 0 -2 -8 -4 -17 -5 -11 0 -13 -3 -6 -6 10 -4 10 -9 1
-26 l-12 -22 -6 25 c-11 45 0 63 44 69 4 0 5 -6 2 -15z m-471 -34 c4 -6 4 -17
1 -25 -4 -12 -10 -13 -31 -3 -25 11 -30 19 -18 31 10 11 41 8 48 -3z m35 -34
c0 -19 6 -36 13 -39 6 -2 9 -8 5 -12 -4 -4 -14 -5 -23 -2 -17 7 -22 87 -5 87
6 0 10 -15 10 -34z m480 7 c0 -9 10 -27 21 -40 19 -19 20 -23 6 -29 -19 -7
-66 15 -80 37 -15 24 -1 49 28 49 17 0 25 -5 25 -17z m-522 -28 c5 -4 -29 -35
-38 -35 -15 0 -43 48 -35 60 5 8 53 -8 73 -25z m662 -1 c0 -2 -28 -3 -62 -3
-46 1 -55 3 -33 8 29 6 95 3 95 -5z m-215 -24 c0 -16 -28 -25 -52 -16 -12 5
-13 9 -3 22 16 18 55 15 55 -6z m355 5 c0 -12 -18 -15 -105 -15 -133 0 -139
18 -7 23 53 1 100 4 105 5 4 1 7 -5 7 -13z m-790 -19 c0 -9 8 -12 26 -8 24 4
25 3 15 -16 -13 -25 -14 -42 -2 -42 5 0 11 13 14 30 6 28 9 30 55 29 46 -1 50
-4 75 -45 22 -36 25 -49 17 -70 -9 -24 -11 -24 -32 -10 -29 21 -68 21 -68 0 0
-17 -43 11 -118 79 -39 35 -41 39 -23 44 12 3 21 9 21 14 0 5 5 9 10 9 6 0 10
-6 10 -14z m376 -12 c24 -6 30 -15 18 -27 -8 -8 -74 24 -74 36 0 5 7 6 16 3 9
-3 27 -9 40 -12z m154 -11 c12 -11 -38 -33 -77 -33 -36 0 -43 3 -43 19 0 11 8
22 18 24 18 5 94 -2 102 -10z m-300 -101 c0 -10 78 -50 115 -58 17 -4 36 -11
43 -17 10 -8 16 -7 22 2 4 8 12 11 17 8 15 -10 122 19 143 38 23 21 36 14 24
-12 -4 -10 -8 -25 -8 -33 -1 -20 -104 -48 -181 -49 -37 -1 -87 7 -131 21 -78
25 -72 16 -65 96 1 13 21 17 21 4z m-44 -33 c3 -5 -8 -22 -24 -37 -16 -15 -33
-42 -37 -60 -3 -18 -11 -32 -16 -32 -14 0 -11 32 7 65 10 19 13 42 9 62 -6 32
-6 32 25 22 16 -6 33 -15 36 -20z m484 1 c0 -25 -24 -47 -46 -42 -30 5 -30 16
-2 36 26 18 48 21 48 6z m-424 -77 c92 -35 206 -37 312 -4 41 12 75 21 76 19
1 -2 9 -23 18 -48 9 -25 19 -53 23 -63 6 -14 -4 -22 -51 -45 -57 -26 -65 -27
-229 -27 -219 0 -283 20 -269 83 11 52 38 112 49 112 1 0 34 -12 71 -27z"/>
<path d="M846 1648 c-6 -22 -7 -22 -20 -5 -7 9 -20 17 -29 17 -14 0 -12 -6 8
-36 13 -19 22 -41 19 -48 -3 -7 2 -13 11 -13 9 0 15 9 15 25 0 13 9 37 21 53
20 28 20 29 1 29 -12 0 -22 -9 -26 -22z"/>
<path d="M718 1650 c-9 -6 -28 -11 -42 -12 -14 -1 -26 -8 -26 -16 0 -9 7 -11
20 -7 17 5 21 0 26 -35 5 -30 11 -40 21 -36 8 4 17 6 20 6 3 0 0 7 -7 15 -7 8
-10 15 -6 15 3 0 1 11 -4 25 -8 21 -7 25 10 25 11 0 20 7 20 15 0 17 -8 18
-32 5z"/>
<path d="M960 1610 c0 -11 6 -20 13 -20 19 0 27 10 20 26 -8 21 -33 17 -33 -6z"/>
<path d="M1068 1619 c-25 -14 -24 -65 1 -79 26 -14 64 -13 79 2 22 22 14 64
-13 76 -31 14 -45 15 -67 1z m61 -23 c16 -20 3 -46 -24 -46 -25 0 -39 32 -22
49 15 15 32 14 46 -3z"/>
<path d="M588 1613 c-16 -4 -15 -7 2 -36 11 -18 20 -40 20 -51 0 -12 5 -16 16
-12 9 3 17 6 19 6 1 0 -6 17 -16 37 -11 21 -17 43 -14 50 5 13 2 14 -27 6z"/>
<path d="M1203 1584 c3 -3 -5 -23 -18 -44 -20 -32 -22 -40 -10 -50 10 -9 15
-7 20 9 7 23 20 27 30 11 9 -15 25 -12 25 5 0 8 -7 15 -15 15 -8 0 -15 7 -15
15 0 14 3 14 29 1 45 -24 46 -5 0 21 -40 22 -59 29 -46 17z"/>
<path d="M503 1565 c-26 -11 -33 -20 -33 -41 0 -22 4 -26 23 -21 12 2 30 8 41
12 27 12 16 -17 -12 -30 -29 -13 -28 -28 1 -20 34 11 59 39 51 59 -7 18 -27
18 -66 1 -11 -4 -18 -3 -18 4 0 6 11 16 25 21 14 5 25 14 25 20 0 12 2 12 -37
-5z"/>
<path d="M368 1465 l-27 -24 36 -36 c25 -25 39 -33 46 -26 8 8 5 15 -8 24 -23
18 -4 32 24 18 14 -8 22 -7 31 4 10 13 8 15 -12 15 -21 0 -25 4 -20 25 4 21 1
25 -19 25 -13 0 -36 -11 -51 -25z m52 -4 c0 -12 -29 -35 -36 -28 -11 10 5 37
21 37 8 0 15 -4 15 -9z"/>
<path d="M1312 1453 c2 -10 10 -18 18 -18 8 0 16 8 18 18 2 12 -3 17 -18 17
-15 0 -20 -5 -18 -17z"/>
<path d="M300 1400 c0 -4 -11 -21 -24 -37 l-23 -28 42 -32 43 -32 26 39 c15
22 21 42 16 45 -6 3 -15 -5 -22 -19 -6 -14 -17 -26 -25 -26 -16 0 -17 12 -1
28 17 17 2 27 -17 12 -24 -20 -27 -6 -5 22 17 22 17 27 5 32 -8 3 -15 1 -15
-4z"/>
<path d="M1388 1399 c-35 -20 -11 -99 30 -99 20 0 13 27 -8 33 -24 6 -26 30
-4 48 14 11 19 10 34 -9 22 -26 42 -29 33 -4 -13 37 -51 51 -85 31z"/>
<path d="M225 1290 c-4 -6 2 -22 14 -34 30 -31 26 -39 -13 -33 -24 4 -36 1
-40 -8 -3 -10 10 -14 51 -17 44 -2 57 0 64 15 7 12 6 17 -3 17 -7 1 -25 17
-40 36 -16 22 -29 31 -33 24z"/>
<path d="M1510 1290 c-8 -5 -32 -10 -53 -10 -27 0 -37 -4 -34 -12 2 -7 11 -12
19 -12 8 1 20 -7 27 -17 7 -12 7 -19 1 -19 -12 0 -14 -27 -2 -33 4 -3 22 15
40 39 23 30 31 48 25 58 -6 11 -13 12 -23 6z"/>
<path d="M1560 1191 c0 -8 -57 -25 -74 -22 -5 1 -5 -6 -2 -16 4 -10 10 -30 13
-45 3 -16 12 -28 20 -28 11 0 13 5 8 18 -20 48 -18 51 23 58 32 5 39 10 35 25
-5 19 -23 27 -23 10z"/>
<path d="M170 1162 c0 -6 -3 -18 -6 -26 -5 -12 -2 -15 10 -10 8 3 30 -1 47
-10 39 -20 36 -20 42 3 4 16 -2 21 -32 26 -20 4 -42 11 -48 17 -9 7 -13 7 -13
0z"/>
<path d="M140 1071 c0 -14 6 -18 25 -16 33 4 32 -11 -2 -27 -15 -7 -29 -21
-31 -30 -3 -13 5 -17 36 -16 22 0 45 -3 51 -6 6 -4 11 0 11 8 0 10 -9 16 -24
16 -38 0 -39 15 -1 28 45 17 54 42 15 42 -16 0 -40 4 -54 10 -22 8 -26 7 -26
-9z"/>
<path d="M1585 1070 c-11 -5 -31 -9 -45 -9 -19 -1 -26 -6 -26 -21 0 -11 1 -20
2 -20 1 0 19 6 40 14 22 7 44 11 51 9 7 -3 9 3 6 16 -3 12 -6 21 -7 20 0 0
-10 -4 -21 -9z"/>
<path d="M1614 999 c-4 -7 -24 -9 -51 -6 -37 4 -43 2 -41 -12 2 -10 11 -15 26
-13 17 2 22 -2 22 -17 0 -12 5 -21 10 -21 6 0 10 9 10 20 0 11 5 20 10 20 6 0
10 -13 10 -30 0 -16 4 -30 9 -30 5 0 8 22 8 50 -2 54 -2 55 -13 39z"/>
<path d="M130 920 c0 -12 9 -15 41 -12 38 4 40 3 37 -19 -3 -21 -8 -24 -40
-23 -30 1 -38 -2 -38 -16 0 -15 6 -17 43 -13 23 4 45 11 49 17 13 18 9 63 -6
75 -21 17 -86 11 -86 -9z"/>
<path d="M1536 864 c-20 -20 -20 -43 0 -72 29 -42 85 -19 86 37 2 49 -51 70
-86 35z m54 -14 c13 -7 17 -16 13 -28 -9 -25 -24 -32 -45 -21 -21 11 -23 30
-6 47 15 15 15 15 38 2z"/>
<path d="M180 765 c0 -8 9 -15 20 -15 11 0 20 7 20 15 0 8 -9 15 -20 15 -11 0
-20 -7 -20 -15z"/>
<path d="M1507 744 c-12 -13 -7 -22 15 -28 25 -6 16 -22 -16 -28 -11 -1 -21
-9 -24 -17 -3 -10 2 -12 22 -7 19 5 26 3 26 -9 0 -9 9 -15 23 -15 18 0 28 9
39 39 l15 39 -36 11 c-20 7 -41 14 -47 17 -5 2 -13 1 -17 -2z"/>
<path d="M255 681 c-3 -6 0 -19 7 -30 9 -15 10 -23 1 -32 -8 -8 -13 -6 -18 10
-3 12 -11 21 -16 21 -12 0 -12 -17 1 -25 15 -9 12 -25 -4 -25 -8 0 -17 14 -21
31 -5 20 -11 27 -17 21 -6 -6 -3 -24 7 -49 l16 -41 39 19 c22 11 43 19 49 19
5 0 3 12 -5 28 -7 15 -14 32 -14 39 0 16 -17 26 -25 14z"/>
<path d="M1457 616 c-3 -8 5 -18 21 -26 23 -10 24 -13 10 -21 -9 -5 -27 -8
-40 -7 -35 4 -28 -17 16 -47 30 -21 41 -23 47 -13 6 9 -1 18 -19 28 l-27 15
40 5 c51 6 51 24 -1 55 -33 19 -43 22 -47 11z"/>
<path d="M308 573 c-1 -5 -17 -19 -35 -31 -21 -15 -30 -28 -26 -38 5 -13 8
-13 23 1 17 15 19 15 29 -4 14 -26 14 -31 -4 -31 -8 0 -15 -4 -15 -9 0 -5 7
-14 15 -21 11 -9 15 -9 15 -1 0 6 16 21 35 32 29 17 33 24 24 35 -10 12 -14
11 -25 -3 -13 -17 -15 -17 -29 2 -14 18 -14 21 6 35 18 14 19 18 6 29 -8 6
-17 8 -19 4z"/>
<path d="M1378 503 c-11 -14 -11 -17 2 -21 8 -3 27 -18 42 -33 23 -23 29 -25
39 -12 10 11 8 17 -11 30 -13 9 -32 25 -41 34 -16 16 -19 16 -31 2z"/>
<path d="M1347 463 c-4 -6 -5 -17 -2 -25 3 -7 -4 -19 -15 -26 -11 -7 -20 -8
-20 -2 0 5 -7 7 -15 4 -25 -10 -17 -20 28 -39 23 -10 44 -20 47 -22 3 -1 11 1
18 6 10 6 8 19 -11 62 -13 30 -26 49 -30 42z"/>
<path d="M391 418 c-22 -27 -26 -29 -37 -14 -9 13 -14 14 -19 5 -10 -14 62
-82 77 -73 7 5 4 12 -7 21 -18 12 -17 14 9 42 16 16 25 34 22 40 -11 17 -19
13 -45 -21z"/>
<path d="M1236 332 c-8 -13 11 -35 23 -28 16 10 14 36 -3 36 -8 0 -17 -4 -20
-8z"/>
<path d="M620 1452 c0 -4 21 -6 48 -4 82 5 89 9 20 11 -38 0 -68 -2 -68 -7z"/>
<path d="M635 1394 c-55 -25 -120 -55 -145 -66 -25 -11 -40 -22 -34 -24 9 -4
290 118 303 131 16 16 -38 -1 -124 -41z"/>
<path d="M1020 1462 c0 -6 27 -12 60 -14 33 -1 60 0 60 5 0 4 -17 7 -37 7 -21
0 -48 3 -60 6 -13 4 -23 2 -23 -4z"/>
<path d="M1006 1432 c18 -16 286 -133 296 -130 10 4 -43 30 -224 112 -56 26
-91 34 -72 18z"/>
<path d="M907 1163 c-3 -5 17 -8 44 -8 27 0 49 3 49 8 0 4 -20 7 -44 7 -25 0
-47 -3 -49 -7z"/>
<path d="M915 929 c-4 -5 14 -9 39 -9 25 0 46 4 46 9 0 12 -78 12 -85 0z"/>
<path d="M710 1220 c-38 -9 -10 -17 35 -9 22 3 38 7 35 8 -13 6 -47 7 -70 1z"/>
<path d="M610 1177 c0 -53 2 -55 40 -49 28 4 30 7 30 48 0 44 0 44 -35 44 -35
0 -35 0 -35 -43z m60 -2 c0 -24 -5 -35 -15 -35 -8 0 -15 5 -15 10 0 6 5 10 11
10 7 0 9 10 5 25 -4 14 -2 25 4 25 5 0 10 -16 10 -35z"/>
<path d="M790 1211 c0 -5 10 -11 23 -15 36 -9 43 -6 23 9 -22 17 -46 20 -46 6z"/>
<path d="M780 1160 c0 -5 9 -10 19 -10 11 0 28 -3 38 -6 16 -6 16 -5 -2 9 -22
18 -55 22 -55 7z"/>
<path d="M795 1111 c50 -18 67 -19 49 -2 -5 5 -29 12 -54 15 l-45 5 50 -18z"/>
<path d="M620 1080 c0 -5 23 -10 50 -10 28 0 50 5 50 10 0 6 -22 10 -50 10
-27 0 -50 -4 -50 -10z"/>
<path d="M734 1081 c3 -4 22 -11 43 -14 21 -3 47 -8 58 -12 11 -4 7 2 -10 14
-29 20 -102 30 -91 12z"/>
<path d="M700 1032 c0 -4 16 -8 35 -9 19 -1 35 3 35 8 0 5 -16 9 -35 9 -19 0
-35 -4 -35 -8z"/>
<path d="M780 1030 c0 -5 9 -10 19 -10 11 0 28 -3 38 -6 16 -5 16 -4 -1 10
-22 18 -56 21 -56 6z"/>
<path d="M620 990 c0 -5 14 -10 31 -10 17 0 28 4 24 10 -3 6 -17 10 -31 10
-13 0 -24 -4 -24 -10z"/>
<path d="M786 991 c-3 -3 11 -11 30 -17 24 -8 34 -8 31 -1 -4 13 -55 28 -61
18z"/>
<path d="M780 941 c0 -6 8 -11 18 -11 9 0 28 -3 42 -6 17 -5 22 -3 15 4 -15
15 -75 26 -75 13z"/>
<path d="M770 890 c20 -13 73 -13 65 0 -3 6 -23 10 -43 10 -28 0 -33 -3 -22
-10z"/>
<path d="M620 850 c0 -5 24 -10 55 -10 30 0 55 4 55 8 0 4 -25 9 -55 10 -32 1
-55 -2 -55 -8z"/>
<path d="M750 852 c0 -5 12 -12 28 -15 15 -3 35 -9 45 -12 10 -4 17 -3 17 4 0
6 -12 13 -27 17 -16 3 -36 8 -45 11 -10 2 -18 0 -18 -5z"/>
<path d="M614 808 c-3 -5 25 -7 63 -7 73 1 68 6 -10 11 -27 2 -51 0 -53 -4z"/>
<path d="M750 801 c0 -4 15 -11 33 -14 17 -3 40 -8 50 -12 9 -4 17 -3 17 2 0
6 -17 15 -39 21 -46 14 -61 15 -61 3z"/>
<path d="M710 761 c0 -9 71 -22 80 -14 2 2 -2 8 -10 13 -19 12 -70 13 -70 1z"/>
<path d="M751 716 c11 -10 89 -15 89 -6 0 5 -21 10 -47 10 -25 0 -44 -2 -42
-4z"/>
<path d="M537 683 c-4 -19 -1 -32 10 -40 21 -16 30 -8 14 11 -9 11 -10 20 -1
35 8 17 8 21 -3 21 -8 0 -17 -12 -20 -27z"/>
<path d="M597 661 c-15 -26 -15 -30 -1 -41 11 -10 18 -10 26 -2 9 9 8 12 -5
12 -9 0 -17 5 -17 11 0 5 4 8 9 5 12 -8 41 3 41 15 0 4 -8 13 -18 18 -15 8
-22 4 -35 -18z"/>
<path d="M760 681 c0 -6 11 -11 24 -11 13 0 33 -3 43 -6 12 -5 15 -4 8 3 -15
16 -75 27 -75 14z"/>
<path d="M664 635 c3 -8 -4 -21 -15 -29 -11 -8 -16 -17 -11 -20 5 -3 15 1 22
9 7 8 19 15 26 15 18 0 18 8 0 26 -19 18 -30 18 -22 -1z"/>
<path d="M775 630 c3 -5 23 -10 43 -10 28 0 33 3 22 10 -20 13 -73 13 -65 0z"/>
<path d="M720 556 c0 -7 -9 -16 -20 -19 -11 -3 -20 -10 -20 -16 0 -9 5 -9 21
-1 11 7 27 9 36 6 11 -5 13 -2 9 10 -3 8 -6 20 -6 25 0 5 -4 9 -10 9 -5 0 -10
-6 -10 -14z"/>
<path d="M723 498 c-25 -12 -32 -34 -8 -25 8 4 17 2 20 -3 4 -6 1 -10 -4 -10
-6 0 -11 -5 -11 -11 0 -5 13 -2 30 8 35 20 40 37 8 27 -20 -6 -21 -5 -9 10 15
18 6 20 -26 4z"/>
<path d="M762 445 c-21 -24 -21 -25 -2 -35 27 -14 34 -12 20 5 -8 9 -8 15 -2
15 6 0 18 3 26 6 14 5 15 2 6 -21 -12 -33 -12 -35 1 -35 5 0 7 5 4 10 -3 6 -1
10 4 10 6 0 11 -8 11 -17 0 -12 5 -9 15 11 20 39 20 40 -20 59 -44 21 -37 22
-63 -8z"/>
<path d="M1012 462 c-9 -7 -10 -15 -3 -35 6 -15 14 -27 18 -27 16 0 37 19 30
27 -5 4 -12 1 -18 -7 -7 -11 -8 -5 -4 18 5 33 0 38 -23 24z"/>
<path d="M868 405 c-3 -28 0 -34 19 -38 13 -2 23 0 23 4 0 5 -8 9 -17 9 -14 0
-15 2 -4 9 7 5 10 14 7 20 -4 6 -2 10 5 9 6 -2 13 2 15 7 2 6 -7 11 -20 11
-20 2 -25 -4 -28 -31z"/>
<path d="M945 423 c4 -10 10 -26 12 -35 6 -20 12 -22 31 -9 9 5 11 17 6 34 -4
20 -12 27 -31 27 -20 0 -24 -4 -18 -17z"/>
<path d="M1017 693 c-2 -5 -7 -20 -11 -35 -6 -26 -4 -28 21 -28 22 1 25 2 12
10 -11 6 -15 18 -11 35 4 24 -2 34 -11 18z"/>
<path d="M1071 649 c-13 -39 -14 -42 -2 -35 13 8 32 66 21 66 -4 0 -13 -14
-19 -31z"/>
<path d="M1105 640 c-3 -11 -3 -24 0 -30 10 -16 45 -12 45 5 0 8 -5 15 -11 15
-5 0 -7 -4 -4 -10 3 -5 2 -10 -4 -10 -15 0 -21 14 -11 29 4 8 13 10 19 7 6 -4
11 -2 11 3 0 19 -38 11 -45 -9z"/>
<path d="M1253 652 c-8 -5 -8 -15 2 -37 11 -26 13 -27 14 -8 1 12 4 28 7 37 7
17 -3 21 -23 8z"/>
<path d="M1170 615 c0 -40 7 -45 20 -12 6 16 9 17 9 5 2 -36 21 -28 21 9 0 30
-3 35 -11 23 -8 -11 -12 -12 -16 -2 -10 24 -23 11 -23 -23z"/>
<path d="M702 248 c-7 -7 -8 -16 -2 -23 6 -7 4 -21 -4 -37 -12 -23 -12 -27 4
-31 14 -3 19 3 24 27 3 17 8 41 12 54 7 24 -13 31 -34 10z"/>
<path d="M982 247 c-7 -8 -9 -29 -5 -50 5 -34 8 -37 38 -37 42 0 64 24 47 51
-7 10 -12 26 -12 34 0 19 -53 21 -68 2z"/>
<path d="M773 203 c0 -46 12 -63 42 -63 30 0 41 17 41 60 -1 34 -2 35 -43 38
l-41 3 1 -38z m60 -28 c-4 -15 -36 -12 -41 3 -3 9 3 13 19 10 13 -1 23 -7 22
-13z"/>
<path d="M880 219 c-25 -46 5 -87 53 -75 20 5 27 13 27 31 0 25 -6 29 -48 27
-20 -1 -22 1 -12 14 8 8 21 12 31 9 11 -4 19 -2 19 4 0 20 -59 12 -70 -10z"/>
<path d="M1222 1693 c5 -25 28 -28 28 -4 0 12 -6 21 -16 21 -9 0 -14 -7 -12
-17z"/>
<path d="M460 1675 c0 -8 9 -15 20 -15 11 0 20 7 20 15 0 8 -9 15 -20 15 -11
0 -20 -7 -20 -15z"/>
<path d="M1270 1666 c0 -21 21 -31 30 -15 5 7 6 17 4 21 -9 14 -34 9 -34 -6z"/>
<path d="M410 1646 c0 -15 24 -28 34 -19 13 14 5 33 -14 33 -11 0 -20 -6 -20
-14z"/>
<path d="M1322 1633 c4 -21 33 -25 33 -3 0 8 -8 16 -18 18 -14 3 -18 -1 -15
-15z"/>
<path d="M364 1619 c-8 -14 11 -33 25 -25 16 10 13 36 -3 36 -8 0 -18 -5 -22
-11z"/>
<path d="M1374 1609 c-10 -17 13 -36 27 -22 12 12 4 33 -11 33 -5 0 -12 -5
-16 -11z"/>
<path d="M1417 1573 c-13 -12 -7 -23 13 -23 11 0 20 7 20 15 0 15 -21 21 -33
8z"/>
<path d="M277 1554 c-14 -14 -7 -35 11 -32 9 2 17 10 17 17 0 16 -18 25 -28
15z"/>
<path d="M1457 1533 c-11 -10 13 -32 28 -27 8 3 11 12 8 20 -5 15 -25 19 -36
7z"/>
<path d="M197 1464 c-14 -14 -7 -35 11 -32 9 2 17 10 17 17 0 16 -18 25 -28
15z"/>
<path d="M156 1411 c-7 -11 18 -33 27 -24 4 3 7 12 7 20 0 15 -26 18 -34 4z"/>
<path d="M1570 1385 c0 -8 9 -15 20 -15 11 0 20 7 20 15 0 8 -9 15 -20 15 -11
0 -20 -7 -20 -15z"/>
<path d="M125 1360 c-3 -5 -4 -14 0 -20 8 -13 35 -1 35 16 0 16 -26 19 -35 4z"/>
<path d="M90 1306 c0 -15 24 -28 34 -19 13 14 5 33 -14 33 -11 0 -20 -6 -20
-14z"/>
<path d="M1661 1240 c-16 -9 -6 -30 15 -30 15 0 20 25 6 34 -4 2 -14 1 -21 -4z"/>
<path d="M46 1201 c-7 -11 18 -33 27 -24 4 3 7 12 7 20 0 15 -26 18 -34 4z"/>
<path d="M1692 1113 c5 -25 28 -28 28 -4 0 12 -6 21 -16 21 -9 0 -14 -7 -12
-17z"/>
<path d="M15 1091 c-8 -15 3 -31 21 -31 9 0 14 7 12 17 -4 20 -24 28 -33 14z"/>
<path d="M1700 1054 c0 -9 7 -14 17 -12 25 5 28 28 4 28 -12 0 -21 -6 -21 -16z"/>
<path d="M10 1020 c0 -11 7 -20 15 -20 8 0 15 9 15 20 0 11 -7 20 -15 20 -8 0
-15 -9 -15 -20z"/>
<path d="M1714 949 c-10 -17 13 -36 27 -22 12 12 4 33 -11 33 -5 0 -12 -5 -16
-11z"/>
<path d="M4 909 c-3 -6 -1 -16 5 -22 9 -9 14 -8 21 3 9 15 4 30 -10 30 -5 0
-12 -5 -16 -11z"/>
<path d="M4 849 c-3 -6 -2 -15 2 -19 12 -12 38 5 30 19 -9 14 -23 14 -32 0z"/>
<path d="M1714 829 c-8 -14 11 -33 25 -25 11 7 4 36 -9 36 -5 0 -12 -5 -16
-11z"/>
<path d="M1704 769 c-3 -6 -2 -15 4 -21 13 -13 32 -2 32 18 0 16 -26 19 -36 3z"/>
<path d="M20 726 c0 -8 4 -17 9 -20 11 -7 33 18 24 27 -12 12 -33 7 -33 -7z"/>
<path d="M30 664 c0 -9 7 -14 17 -12 25 5 28 28 4 28 -12 0 -21 -6 -21 -16z"/>
<path d="M1680 651 c0 -12 6 -21 16 -21 9 0 14 7 12 17 -5 25 -28 28 -28 4z"/>
<path d="M52 613 c4 -21 33 -25 33 -3 0 8 -8 16 -18 18 -14 3 -18 -1 -15 -15z"/>
<path d="M1654 599 c-8 -14 11 -33 25 -25 16 10 13 36 -3 36 -8 0 -18 -5 -22
-11z"/>
<path d="M1633 544 c-7 -19 2 -28 22 -21 19 8 19 23 0 31 -9 3 -18 -1 -22 -10z"/>
<path d="M100 506 c0 -8 4 -17 9 -20 11 -7 33 18 24 27 -12 12 -33 7 -33 -7z"/>
<path d="M1604 489 c-8 -14 11 -33 25 -25 6 4 11 14 11 22 0 16 -26 19 -36 3z"/>
<path d="M132 453 c4 -21 33 -25 33 -3 0 8 -8 16 -18 18 -14 3 -18 -1 -15 -15z"/>
<path d="M1574 439 c-10 -17 13 -36 27 -22 12 12 4 33 -11 33 -5 0 -12 -5 -16
-11z"/>
<path d="M162 403 c4 -21 33 -25 33 -3 0 8 -8 16 -18 18 -14 3 -18 -1 -15 -15z"/>
<path d="M1540 386 c0 -8 4 -17 9 -20 11 -7 33 18 24 27 -12 12 -33 7 -33 -7z"/>
<path d="M1507 353 c-13 -12 -7 -33 8 -33 8 0 15 9 15 20 0 20 -11 26 -23 13z"/>
<path d="M237 323 c-8 -7 11 -33 24 -33 5 0 9 9 9 20 0 19 -20 27 -33 13z"/>
<path d="M1460 294 c0 -9 7 -14 17 -12 25 5 28 28 4 28 -12 0 -21 -6 -21 -16z"/>
<path d="M287 283 c-13 -12 -7 -33 8 -33 8 0 15 9 15 20 0 20 -11 26 -23 13z"/>
<path d="M1420 256 c0 -8 4 -17 9 -20 11 -7 33 18 24 27 -12 12 -33 7 -33 -7z"/>
<path d="M330 229 c0 -24 23 -21 28 4 2 10 -3 17 -12 17 -10 0 -16 -9 -16 -21z"/>
<path d="M382 208 c-18 -18 -14 -28 8 -28 11 0 20 6 20 14 0 21 -15 27 -28 14z"/>
<path d="M1320 186 c0 -10 9 -16 21 -16 24 0 21 23 -4 28 -10 2 -17 -3 -17
-12z"/>
<path d="M427 173 c-13 -12 -7 -23 13 -23 11 0 20 7 20 15 0 15 -21 21 -33 8z"/>
<path d="M1270 156 c0 -10 9 -16 21 -16 24 0 21 23 -4 28 -10 2 -17 -3 -17
-12z"/>
<path d="M1227 143 c-4 -3 -7 -12 -7 -20 0 -15 26 -18 34 -4 7 11 -18 33 -27
24z"/>
<path d="M530 116 c0 -21 21 -31 30 -15 5 7 6 17 4 21 -9 14 -34 9 -34 -6z"/>
<path d="M1117 103 c-4 -3 -7 -12 -7 -20 0 -15 26 -18 34 -4 7 11 -18 33 -27
24z"/>
<path d="M640 76 c0 -10 9 -16 21 -16 24 0 21 23 -4 28 -10 2 -17 -3 -17 -12z"/>
<path d="M700 59 c0 -24 23 -21 28 4 2 10 -3 17 -12 17 -10 0 -16 -9 -16 -21z"/>
<path d="M816 55 c-3 -9 1 -18 10 -22 19 -7 28 2 21 22 -8 19 -23 19 -31 0z"/>
<path d="M934 59 c-10 -17 13 -36 27 -22 12 12 4 33 -11 33 -5 0 -12 -5 -16
-11z"/>
<path d="M990 55 c0 -8 9 -15 20 -15 11 0 20 7 20 15 0 8 -9 15 -20 15 -11 0
-20 -7 -20 -15z"/>
</g>
</svg>
